<svg width="1387" height="811" viewBox="0 0 1387 811" fill="none" xmlns="http://www.w3.org/2000/svg">
<mask id="mask0_621_710" style="mask-type:alpha" maskUnits="userSpaceOnUse" x="0" y="0" width="1387" height="811">
<rect width="1387" height="811" fill="#C4C4C4"/>
</mask>
<g mask="url(#mask0_621_710)">
<g opacity="0.05">
<path d="M1653.23 -110.301C1592.86 -132.293 1522.42 -107.368 1477.58 -60.7442C1432.44 -14.1202 1409.73 50.6843 1399.67 115.489C1389.61 180.293 1391.33 245.978 1388.17 311.369C1385.01 376.759 1376.67 443.323 1348.5 502.263C1324.64 552.113 1287.55 594.045 1257.94 640.669C1159.62 795.203 1149.27 989.323 1141.51 1173.18" stroke="#181A1C" stroke-width="20" stroke-miterlimit="10"/>
<path d="M84.1437 696.382C29.5218 696.382 -21.6502 686.413 -67.6475 666.766C-144.118 633.924 -204.49 573.811 -233.813 501.969L-241 483.788L-72.2473 -188.595L-60.4605 -200.324C-27.6874 -232.286 17.735 -250.76 64.3073 -250.76C79.8314 -250.76 95.068 -248.708 109.73 -244.602C129.854 -239.031 148.54 -229.941 165.501 -217.625C198.562 -193.873 223.861 -158.978 235.072 -119.099C241.397 -96.8128 243.122 -75.1136 244.272 -56.0535C245.134 -45.7903 245.709 -35.8204 247.147 -27.3166C255.771 26.345 297.169 73.2623 340.579 122.819C388.876 177.946 443.785 240.405 460.747 323.39C478.858 412.24 447.81 510.766 379.677 581.142C307.806 655.037 216.099 682.014 151.702 691.397C129.279 694.623 106.567 696.382 84.1437 696.382Z" stroke="#181A1C" stroke-width="11" stroke-miterlimit="10"/>
<path d="M-181.299 478.939C-156.863 539.345 -105.404 586.555 -46.1821 612.067C13.0395 637.285 79.4481 642.27 142.982 632.886C215.428 622.33 287.011 592.42 338.471 539.345C389.93 486.27 418.966 407.977 404.017 334.961C375.843 197.728 212.553 120.315 189.842 -18.0912C185.242 -46.2415 186.967 -75.5648 179.205 -103.129C167.706 -143.888 134.357 -177.317 94.1098 -188.166C54.1496 -199.309 8.7272 -187.287 -21.4585 -157.963L-181.299 478.939Z" fill="#4B4C4C"/>
<path d="M-13.0234 -356.911C74.9465 -353.099 163.491 -348.994 248.586 -325.535C333.394 -302.37 415.614 -257.798 469.086 -186.543C500.134 -145.197 521.121 -95.3473 558.781 -60.1593C612.253 -10.3097 689.011 1.71279 760.882 11.3895C1053.25 50.6827 1345.91 89.6827 1638.28 128.976" stroke="#181A1C" stroke-width="11" stroke-miterlimit="10"/>
<path d="M485.186 -41.9784C464.199 -64.8505 442.638 -107.956 418.202 -127.016C394.341 -145.49 364.443 -146.663 338.282 -127.309C304.359 -102.384 294.584 -55.4671 313.271 -17.3468C335.119 27.2246 372.78 59.4803 406.703 95.2547C483.461 176.773 534.633 279.405 555.907 388.488C559.356 406.082 583.505 407.841 589.255 390.54L683.837 116.661C692.461 91.4427 677.8 64.172 652.214 58.0141C589.542 43.6457 528.021 4.64569 485.186 -41.9784Z" fill="#4B4C4C"/>
<path d="M462.469 402.563C484.605 439.511 522.553 466.195 563.95 474.405C565.675 474.699 567.4 474.992 569.125 475.285C627.484 484.669 683.543 448.894 703.38 392.3L832.747 21.9469L734.428 -531.677" stroke="#181A1C" stroke-width="11" stroke-miterlimit="10"/>
<path d="M609.378 476.753L860.926 1063.51" stroke="#181A1C" stroke-width="11" stroke-miterlimit="10"/>
<path d="M1579.63 916.895L744.207 790.805L-30.2732 916.895" stroke="#181A1C" stroke-width="11" stroke-miterlimit="10"/>
<path d="M1213.67 -561L1176.29 66.8119L1046.93 527.481L1002.08 829.804" stroke="#181A1C" stroke-width="11" stroke-miterlimit="10"/>
<path d="M306.943 83.2331L515.943 -118.218" stroke="#181A1C" stroke-width="5" stroke-miterlimit="10"/>
<path d="M442.638 269.141C475.411 215.773 536.07 184.983 597.304 177.359C658.538 169.735 720.634 183.224 779.281 202.284" stroke="#181A1C" stroke-width="5" stroke-miterlimit="10"/>
<path d="M408.712 -7.66876L574.015 181.467" stroke="#181A1C" stroke-width="5" stroke-miterlimit="10"/>
<path d="M831.598 183.225C836.996 183.225 841.372 178.762 841.372 173.256C841.372 167.749 836.996 163.286 831.598 163.286C826.199 163.286 821.823 167.749 821.823 173.256C821.823 178.762 826.199 183.225 831.598 183.225Z" fill="#1E1F21"/>
<path d="M977.065 3.17937L1136.62 21.6531L1141.22 -82.7379H977.065V3.17937Z" fill="#212121"/>
<path d="M1217.12 340.105V258H1182.04L1124.55 482.909H1292.15V340.105H1217.12Z" fill="#212121"/>
<path d="M1215.97 122.233L1193.54 204.045H1334.41V134.256L1215.97 122.233Z" fill="#212121"/>
<path d="M1334.41 236.007H1263.98V307.849H1334.41V236.007Z" fill="#212121"/>
<path d="M925.604 482.03L840.222 412.534L784.737 542.436L865.52 622.782L925.604 482.03Z" fill="#212121"/>
<path d="M944.289 497.278L883.055 640.376L967 723.948L997.761 540.97L944.289 497.278Z" fill="#212121"/>
<path d="M1099.82 104.639H886.508V170.616H1099.82V104.639Z" fill="#212121"/>
<path d="M974.189 236.007H956.077V336.879H1052.1L1081.99 236.007H974.189Z" fill="#212121"/>
<path d="M895.133 225.744H834.187V246.27H895.133V225.744Z" fill="#212121"/>
<path d="M895.133 258.878H834.187V279.405H895.133V258.878Z" fill="#212121"/>
<path d="M895.133 292.308H834.187V312.835H895.133V292.308Z" fill="#212121"/>
<path d="M1228.61 -63.0907L1224.3 24.586L1364.3 40.7138L1370.63 -63.0907H1228.61Z" fill="#212121"/>
<path d="M1400.53 623.66L1407.43 589.645H1347.92L1330.1 623.66H1400.53Z" fill="#212121"/>
<path d="M1386.44 693.451L1396.22 645.068H1319.17L1294.16 693.451H1386.44Z" fill="#212121"/>
<path d="M1283.23 714.564L1242.99 792.857L1363.73 805.759L1382.13 714.564H1283.23Z" fill="#212121"/>
<path d="M290.842 740.368H98.8027V821.007H290.842V740.368Z" fill="#212121"/>
<path d="M455.281 548.3L356.674 696.383L466.493 750.631L533.189 580.263L455.281 548.3Z" fill="#212121"/>
<path d="M743.627 696.677L760.013 730.105L812.048 714.564L789.912 679.083L743.627 696.677Z" fill="#212121"/>
<path d="M782.15 666.473L754.552 622.781L714.879 637.736L737.303 683.481L782.15 666.473Z" fill="#212121"/>
<path d="M735.292 276.767L1046.92 527.481H1696.64" stroke="#181A1C" stroke-width="11" stroke-miterlimit="10"/>
<path d="M267.845 658.849C310.105 732.451 369.901 796.082 440.047 842.413" stroke="#181A1C" stroke-width="5" stroke-miterlimit="10"/>
<path d="M775.827 200.527C895.995 202.872 1016.45 205.218 1136.62 207.564" stroke="#181A1C" stroke-width="5" stroke-miterlimit="10"/>
<path d="M1590.85 536.279C1516.39 541.264 1446.82 593.459 1420.08 664.422C1404.56 705.474 1402.83 750.046 1397.66 793.737C1387.02 881.414 1361.43 967.038 1322.34 1045.62" stroke="#181A1C" stroke-width="5" stroke-miterlimit="10"/>
<path d="M821.538 397.285L768.641 353.887L714.882 472.646L767.204 524.842L821.538 397.285Z" fill="#212121"/>
<path d="M899.162 61.5333H858.052V80.5935H899.162V61.5333Z" fill="#212121"/>
<path d="M847.41 367.082H1088.9" stroke="#181A1C" stroke-width="5" stroke-miterlimit="10"/>
<path d="M705.684 54.791C711.082 54.791 715.458 50.3273 715.458 44.8211C715.458 39.3148 711.082 34.8511 705.684 34.8511C700.285 34.8511 695.909 39.3148 695.909 44.8211C695.909 50.3273 700.285 54.791 705.684 54.791Z" fill="#1E1F21"/>
<path d="M950.617 90.5658C956.015 90.5658 960.391 86.1021 960.391 80.5959C960.391 75.0896 956.015 70.6259 950.617 70.6259C945.218 70.6259 940.842 75.0896 940.842 80.5959C940.842 86.1021 945.218 90.5658 950.617 90.5658Z" fill="#1E1F21"/>
<path d="M1324.35 374.123C1329.74 374.123 1334.12 369.659 1334.12 364.153C1334.12 358.647 1329.74 354.183 1324.35 354.183C1318.95 354.183 1314.57 358.647 1314.57 364.153C1314.57 369.659 1318.95 374.123 1324.35 374.123Z" fill="#1E1F21"/>
<path d="M515.944 398.166C521.343 398.166 525.719 393.702 525.719 388.196C525.719 382.69 521.343 378.226 515.944 378.226C510.546 378.226 506.17 382.69 506.17 388.196C506.17 393.702 510.546 398.166 515.944 398.166Z" fill="#1E1F21"/>
<path d="M779.278 767.347C784.677 767.347 789.053 762.883 789.053 757.377C789.053 751.871 784.677 747.407 779.278 747.407C773.88 747.407 769.504 751.871 769.504 757.377C769.504 762.883 773.88 767.347 779.278 767.347Z" fill="#1E1F21"/>
<path d="M440.047 800.777C445.446 800.777 449.822 796.314 449.822 790.807C449.822 785.301 445.446 780.838 440.047 780.838C434.649 780.838 430.273 785.301 430.273 790.807C430.273 796.314 434.649 800.777 440.047 800.777Z" fill="#1E1F21"/>
<path d="M328.793 819.837C334.191 819.837 338.568 815.373 338.568 809.867C338.568 804.361 334.191 799.897 328.793 799.897C323.395 799.897 319.019 804.361 319.019 809.867C319.019 815.373 323.395 819.837 328.793 819.837Z" fill="#1E1F21"/>
<path d="M965.857 799.603C971.255 799.603 975.631 795.14 975.631 789.633C975.631 784.127 971.255 779.663 965.857 779.663C960.459 779.663 956.083 784.127 956.083 789.633C956.083 795.14 960.459 799.603 965.857 799.603Z" fill="#1E1F21"/>
<path d="M489.207 507.249C494.605 507.249 498.981 502.785 498.981 497.279C498.981 491.773 494.605 487.309 489.207 487.309C483.809 487.309 479.432 491.773 479.432 497.279C479.432 502.785 483.809 507.249 489.207 507.249Z" fill="#1E1F21"/>
<path d="M1023.93 458.573C1029.32 458.573 1033.7 454.11 1033.7 448.603C1033.7 443.097 1029.32 438.633 1023.93 438.633C1018.53 438.633 1014.15 443.097 1014.15 448.603C1014.15 454.11 1018.53 458.573 1023.93 458.573Z" fill="#1E1F21"/>
<path d="M714.881 597.859C720.279 597.859 724.656 593.395 724.656 587.889C724.656 582.383 720.279 577.919 714.881 577.919C709.483 577.919 705.107 582.383 705.107 587.889C705.107 593.395 709.483 597.859 714.881 597.859Z" fill="#1E1F21"/>
<path d="M946.305 407.257C951.703 407.257 956.08 402.794 956.08 397.288C956.08 391.781 951.703 387.318 946.305 387.318C940.907 387.318 936.531 391.781 936.531 397.288C936.531 402.794 940.907 407.257 946.305 407.257Z" fill="#1E1F21"/>
<path d="M1046.92 402.859C1052.32 402.859 1056.7 398.395 1056.7 392.889C1056.7 387.383 1052.32 382.919 1046.92 382.919C1041.53 382.919 1037.15 387.383 1037.15 392.889C1037.15 398.395 1041.53 402.859 1046.92 402.859Z" fill="#1E1F21"/>
<path d="M567.113 445.67C572.511 445.67 576.887 441.206 576.887 435.7C576.887 430.194 572.511 425.73 567.113 425.73C561.715 425.73 557.338 430.194 557.338 435.7C557.338 441.206 561.715 445.67 567.113 445.67Z" fill="#1E1F21"/>
<path d="M1202.75 576.453H1096.09C1088.9 576.453 1082.86 581.732 1082 588.769L1053.83 776.438C1052.68 784.356 1058.14 791.98 1065.9 793.153L1111.61 799.897C1118.8 801.07 1125.7 796.378 1127.42 789.047C1144.67 721.31 1174.28 656.506 1214.24 599.619C1221.14 589.942 1214.53 576.453 1202.75 576.453Z" fill="#1E1F21"/>
<path d="M606.502 643.895L571.429 760.895C569.416 767.64 574.878 774.091 581.491 772.918L673.198 759.136C679.522 758.256 682.972 750.925 679.81 745.061L623.463 641.843C619.438 634.805 608.802 635.978 606.502 643.895Z" fill="#1E1F21"/>
<path d="M664.571 448.601L908.07 809.864" stroke="#181A1C" stroke-width="5" stroke-miterlimit="10"/>
<path d="M375.079 1191.65L737.222 29.3201C790.982 -134.89 941.134 -233.46 1108.45 -261.61L1673.07 -356.911" stroke="#3D3E3F" stroke-width="12" stroke-miterlimit="10"/>
<path d="M430.273 1350L1090.05 -561" stroke="#3D3E3F" stroke-width="12" stroke-miterlimit="10"/>
</g>
</g>
</svg>
