<svg width="32" height="32" viewBox="0 0 32 32" fill="none" xmlns="http://www.w3.org/2000/svg">
<path d="M24.357 8.26605V24.4707H22.6354V11.5305L16.5852 24.4707H15.3309L9.28069 11.5774V24.4707H7.55909V8.26605H9.37907L15.9457 22.31L22.5124 8.26605H24.357Z" fill="black"/>
<path d="M8.65095 17.0231H23.7691V18.7418H8.65095V17.0231Z" fill="black"/>
<path d="M8.65095 11.4579H23.7691V13.1765H8.65095V11.4579Z" fill="black"/>
<path d="M16.8819 4.17397L16.8819 12.6855H15.1181V4.17397L16.8819 4.17397Z" fill="black"/>
<path d="M20.3675 5.89264L11.6326 5.89264V4.17397L20.3675 4.17397V5.89264Z" fill="black"/>
<path d="M28.4725 5.89264L26.7087 5.89264V4.17397L28.4725 4.17397V5.89264Z" fill="black"/>
<path d="M5.20738 5.89264L3.4436 5.89264L3.4436 4.17397L5.20738 4.17397L5.20738 5.89264Z" fill="black"/>
<path d="M28.4725 28.5627H26.7087V26.8441H28.4725V28.5627Z" fill="black"/>
<path d="M26.1208 26.1893H24.357V24.4707H26.1208V26.1893Z" fill="black"/>
<path d="M9.40686 28.5627H3.4436L3.4436 26.8441H9.40686V28.5627Z" fill="black"/>
<path d="M7.55909 5.8108L5.79531 5.8108L5.79531 4.09213L7.55909 4.09213L7.55909 5.8108Z" fill="black"/>
<path d="M4.36749 17.0231H8.65095V18.7418H4.36749V17.0231Z" fill="black"/>
<path d="M23.9945 14.7999L28.0488 18.7505L26.8016 19.9658L22.7473 16.0152L23.9945 14.7999Z" fill="black"/>
<path d="M3.4436 24.5525L3.4436 8.26605H5.20738L5.20738 24.5525H3.4436Z" fill="black"/>
<path d="M26.7087 24.5525V8.26605H28.4725L28.4725 24.5525H26.7087Z" fill="black"/>
<path d="M16.0395 28.6446C15.2064 28.6446 14.4578 28.4857 13.7937 28.168C13.1416 27.837 12.6285 27.3869 12.2542 26.8177C11.8798 26.2352 11.7706 25.2662 11.7586 24.5116H13.4384C13.4987 25.1603 13.7333 26.0101 14.1559 26.4602C14.5906 26.8971 15.2185 27.1155 16.0395 27.1155C16.8244 27.1155 17.4402 26.9037 17.887 26.4801C18.3458 26.0432 18.5752 25.4872 18.5752 24.812C18.5752 24.2825 18.4424 23.8522 18.1767 23.5213C17.9111 23.1903 17.5791 22.9388 17.1806 22.7667C16.7821 22.5946 16.2448 22.4092 15.5686 22.2107C14.7355 21.9724 14.663 21.4762 14.1559 21.2379C13.6608 20.9996 14.174 20.2678 13.8118 19.7648C13.4616 19.2485 12.6405 18.901 12.6405 18.0405C12.6405 17.2859 11.9221 16.8954 12.2723 16.3129C12.6224 15.7304 13.1115 15.2803 13.7393 14.9626C14.3793 14.6449 15.1098 14.486 15.9309 14.486C17.1142 14.486 18.0801 14.8103 18.8288 15.459C19.5895 16.1077 19.6536 16.2865 19.9475 17.2686L18.3035 18.0405C18.2432 17.511 17.9896 17.0476 17.5428 16.6505C17.0961 16.2401 16.5044 16.0349 15.7679 16.0349C15.0796 16.0349 14.5181 16.2335 14.0835 16.6306C13.6488 17.0145 13.4314 17.5573 13.4314 18.259C13.4314 18.762 13.5582 19.1724 13.8118 19.4901C14.0774 19.8079 14.3974 20.0528 14.7717 20.2249C15.1581 20.3837 15.6954 20.5691 16.3837 20.7809C17.2168 21.0324 17.887 21.284 18.3941 21.5355C18.9012 21.7738 19.3359 22.1511 19.6981 22.6674C20.0604 23.1704 20.2415 23.8588 20.2415 24.7326C20.2415 25.4078 20.0785 26.0432 19.7525 26.6389C19.4265 27.2347 18.9435 27.7179 18.3035 28.0885C17.6636 28.4592 16.9089 28.6446 16.0395 28.6446Z" fill="black"/>
<path fill-rule="evenodd" clip-rule="evenodd" d="M29.9214 2.02547H2.07863V29.9745H29.9214V2.02547ZM0 0V32H32V0H0Z" fill="black"/>
</svg>
