<svg width="195" height="270" viewBox="0 0 195 270" fill="none" xmlns="http://www.w3.org/2000/svg">
<rect x="21.5" y="148.5" width="25" height="9" rx="4.5" stroke="#3076FD"/>
<ellipse cx="26" cy="153.027" rx="3" ry="3.02727" fill="white"/>
<rect x="21.5005" y="136.5" width="25.0371" height="8.94142" rx="4.47071" stroke="white"/>
<ellipse cx="42" cy="141.027" rx="3" ry="3.02727" fill="#3076FD"/>
<path d="M28.6099 166.975V166.66H29.2392V168.866H28.8913V166.975H28.6099Z" fill="white"/>
<path d="M30.2729 166.975V166.66H30.9022V168.866H30.5543V166.975H30.2729Z" fill="white"/>
<path d="M31.9812 167.734C31.9812 167.385 32.0397 167.113 32.1567 166.917C32.2757 166.72 32.4795 166.621 32.7679 166.621C33.0564 166.621 33.2591 166.72 33.3761 166.917C33.4951 167.113 33.5546 167.385 33.5546 167.734C33.5546 168.087 33.4951 168.364 33.3761 168.563C33.2591 168.761 33.0564 168.86 32.7679 168.86C32.4795 168.86 32.2757 168.761 32.1567 168.563C32.0397 168.364 31.9812 168.087 31.9812 167.734ZM33.2157 167.734C33.2157 167.571 33.2047 167.433 33.1825 167.32C33.1623 167.207 33.1199 167.115 33.0554 167.044C32.9908 166.972 32.895 166.936 32.7679 166.936C32.6408 166.936 32.545 166.972 32.4805 167.044C32.4159 167.115 32.3726 167.207 32.3504 167.32C32.3302 167.433 32.3201 167.571 32.3201 167.734C32.3201 167.904 32.3302 168.046 32.3504 168.161C32.3705 168.276 32.4129 168.369 32.4775 168.439C32.544 168.51 32.6408 168.545 32.7679 168.545C32.895 168.545 32.9908 168.51 33.0554 168.439C33.1219 168.369 33.1653 168.276 33.1855 168.161C33.2057 168.046 33.2157 167.904 33.2157 167.734Z" fill="white"/>
<path d="M34.9151 167.444C34.9736 167.367 35.0533 167.303 35.1541 167.25C35.255 167.198 35.369 167.172 35.496 167.172C35.6413 167.172 35.7734 167.208 35.8924 167.28C36.0134 167.351 36.1083 167.451 36.1768 167.58C36.2454 167.709 36.2797 167.857 36.2797 168.025C36.2797 168.192 36.2454 168.343 36.1768 168.476C36.1083 168.607 36.0134 168.71 35.8924 168.784C35.7734 168.857 35.6413 168.893 35.496 168.893C35.369 168.893 35.256 168.868 35.1572 168.818C35.0583 168.765 34.9776 168.701 34.9151 168.624V169.659H34.5702V167.199H34.9151V167.444ZM35.9287 168.025C35.9287 167.91 35.9045 167.811 35.8561 167.728C35.8097 167.644 35.7472 167.58 35.6685 167.538C35.5919 167.493 35.5092 167.471 35.4204 167.471C35.3337 167.471 35.251 167.493 35.1723 167.538C35.0956 167.582 35.0331 167.647 34.9847 167.731C34.9383 167.816 34.9151 167.916 34.9151 168.031C34.9151 168.146 34.9383 168.247 34.9847 168.333C35.0331 168.418 35.0956 168.483 35.1723 168.527C35.251 168.571 35.3337 168.594 35.4204 168.594C35.5092 168.594 35.5919 168.571 35.6685 168.527C35.7472 168.481 35.8097 168.414 35.8561 168.327C35.9045 168.241 35.9287 168.14 35.9287 168.025Z" fill="white"/>
<path d="M37.9401 168.022L38.4786 168.866H38.0883L37.7283 168.3L37.3894 168.866H37.0293L37.5679 168.046L37.0293 167.199H37.4196L37.7797 167.765L38.1186 167.199H38.4786L37.9401 168.022Z" fill="white"/>
<path d="M60.0173 145.63L59.7571 145.63L58.2987 144.613L58.2987 144.195L59.7178 144.195L59.7178 143.914L60.0173 143.914L60.0173 144.195L60.4772 144.195L60.4772 144.534L60.0173 144.534L60.0173 145.63ZM58.6497 144.519L59.7178 145.233L59.7178 144.519L58.6497 144.519Z" fill="white"/>
<path d="M60.0083 142.832C59.8408 142.639 59.7037 142.487 59.5967 142.376C59.4878 142.263 59.3749 142.169 59.2579 142.094C59.1409 142.02 59.0239 141.982 58.9069 141.982C58.7858 141.982 58.691 142.012 58.6224 142.07C58.5539 142.126 58.5196 142.216 58.5196 142.339C58.5196 142.458 58.5579 142.551 58.6346 142.618C58.7092 142.682 58.81 142.717 58.9371 142.721L58.9371 143.053C58.7072 143.047 58.5317 142.979 58.4106 142.848C58.2876 142.714 58.2261 142.546 58.2261 142.342C58.2261 142.122 58.2866 141.951 58.4076 141.828C58.5287 141.703 58.69 141.64 58.8917 141.64C59.037 141.64 59.1772 141.678 59.3123 141.752C59.4455 141.825 59.5655 141.913 59.6724 142.016C59.7773 142.116 59.8993 142.245 60.0385 142.403L60.1595 142.539L60.1595 141.58L60.447 141.58L60.447 143.05L60.1958 143.05L60.0083 142.832Z" fill="white"/>
<path d="M59.0551 140.281C58.9785 140.223 58.9139 140.143 58.8615 140.042C58.809 139.941 58.7828 139.827 58.7828 139.7C58.7828 139.555 58.8191 139.423 58.8917 139.304C58.9623 139.183 59.0622 139.088 59.1913 139.02C59.3204 138.951 59.4687 138.917 59.6361 138.917C59.8035 138.917 59.9538 138.951 60.0869 139.02C60.218 139.088 60.3209 139.183 60.3956 139.304C60.4682 139.423 60.5045 139.555 60.5045 139.7C60.5045 139.827 60.4793 139.94 60.4288 140.039C60.3764 140.138 60.3118 140.219 60.2352 140.281L61.27 140.281L61.27 140.626L58.81 140.626L58.81 140.281L59.0551 140.281ZM59.6361 139.268C59.5211 139.268 59.4223 139.292 59.3396 139.34C59.2548 139.387 59.1913 139.449 59.1489 139.528C59.1046 139.605 59.0824 139.687 59.0824 139.776C59.0824 139.863 59.1046 139.945 59.1489 140.024C59.1933 140.101 59.2579 140.163 59.3426 140.212C59.4273 140.258 59.5272 140.281 59.6421 140.281C59.7571 140.281 59.858 140.258 59.9447 140.212C60.0294 140.163 60.094 140.101 60.1384 140.024C60.1827 139.945 60.2049 139.863 60.2049 139.776C60.2049 139.687 60.1827 139.605 60.1384 139.528C60.092 139.449 60.0254 139.387 59.9387 139.34C59.8519 139.292 59.7511 139.268 59.6361 139.268Z" fill="white"/>
<path d="M59.6331 137.256L60.4772 136.718L60.4772 137.108L59.9114 137.468L60.4772 137.807L60.4772 138.167L59.6573 137.629L58.81 138.167L58.81 137.777L59.3759 137.417L58.81 137.078L58.81 136.718L59.6331 137.256Z" fill="white"/>
<path d="M52.9414 135.646C52.7462 135.451 52.4296 135.451 52.2343 135.646L49.0524 138.828C48.8571 139.024 48.8571 139.34 49.0524 139.536C49.2476 139.731 49.5642 139.731 49.7595 139.536L52.5879 136.707L55.4163 139.536C55.6116 139.731 55.9282 139.731 56.1234 139.536C56.3187 139.34 56.3187 139.024 56.1234 138.828L52.9414 135.646ZM53.0879 139.314L53.0879 136L52.0879 136L52.0879 139.314L53.0879 139.314Z" fill="white"/>
<path d="M52.2343 146.295C52.4296 146.49 52.7462 146.49 52.9414 146.295L56.1234 143.113C56.3187 142.918 56.3187 142.601 56.1234 142.406C55.9282 142.211 55.6116 142.211 55.4163 142.406L52.5879 145.234L49.7595 142.406C49.5642 142.211 49.2476 142.211 49.0524 142.406C48.8571 142.601 48.8571 142.918 49.0524 143.113L52.2343 146.295ZM52.0879 138.604L52.0879 145.941L53.0879 145.941L53.0879 138.604L52.0879 138.604Z" fill="white"/>
<path d="M47.3906 164.444C47.5859 164.249 47.5859 163.932 47.3906 163.737L44.2086 160.555C44.0134 160.359 43.6968 160.359 43.5015 160.555C43.3063 160.75 43.3063 161.067 43.5015 161.262L46.3299 164.09L43.5015 166.919C43.3063 167.114 43.3063 167.431 43.5015 167.626C43.6968 167.821 44.0134 167.821 44.2086 167.626L47.3906 164.444ZM25.9707 164.59L47.0371 164.59L47.0371 163.59L25.9707 163.59L25.9707 164.59Z" fill="white"/>
<path d="M20.6461 163.737C20.4509 163.932 20.4509 164.249 20.6461 164.444L23.8281 167.626C24.0234 167.821 24.34 167.821 24.5352 167.626C24.7305 167.431 24.7305 167.114 24.5352 166.919L21.7068 164.09L24.5352 161.262C24.7305 161.067 24.7305 160.75 24.5352 160.555C24.34 160.359 24.0234 160.359 23.8281 160.555L20.6461 163.737ZM28.3374 163.59L20.9997 163.59V164.59L28.3374 164.59V163.59Z" fill="white"/>
<path d="M173.441 105.705H21.0552V118.046H173.441V105.705Z" stroke="#03F08D" stroke-miterlimit="10"/>
<path d="M67.0006 28.2949H21.6309C21.313 28.2949 21.0552 28.5374 21.0552 28.8366V37.0441C21.0552 37.3433 21.313 37.5858 21.6309 37.5858H67.0006C67.3186 37.5858 67.5764 37.3433 67.5764 37.0441V28.8366C67.5764 28.5374 67.3186 28.2949 67.0006 28.2949Z" stroke="#404DA1" stroke-miterlimit="10"/>
<path d="M120.512 28.2949H75.1422C74.8242 28.2949 74.5664 28.5374 74.5664 28.8366V37.0441C74.5664 37.3433 74.8242 37.5858 75.1422 37.5858H120.512C120.83 37.5858 121.088 37.3433 121.088 37.0441V28.8366C121.088 28.5374 120.83 28.2949 120.512 28.2949Z" stroke="#404DA1" stroke-miterlimit="10"/>
<path d="M172.865 28.2949H127.496C127.178 28.2949 126.92 28.5374 126.92 28.8366V37.0441C126.92 37.3433 127.178 37.5858 127.496 37.5858H172.865C173.183 37.5858 173.441 37.3433 173.441 37.0441V28.8366C173.441 28.5374 173.183 28.2949 172.865 28.2949Z" stroke="#404DA1" stroke-miterlimit="10"/>
<g opacity="0.15">
<path opacity="0.15" d="M67.5774 41.9036H21.0562V99.0526H67.5774V41.9036Z" fill="white"/>
<path opacity="0.15" d="M120.507 42.3099H73.9858V99.4589H120.507V42.3099Z" fill="white"/>
</g>
<path d="M173.441 41.9036H126.92V99.0526H173.441V41.9036Z" stroke="white" stroke-miterlimit="10"/>
<path d="M126.776 98.9551L173.58 42.0065" stroke="white" stroke-miterlimit="10"/>
<path d="M126.92 41.9036L173.435 99.058" stroke="white" stroke-miterlimit="10"/>
<path d="M120.506 42.3099H73.9844V99.4589H120.506V42.3099Z" stroke="white" stroke-miterlimit="10"/>
<path d="M73.8467 99.3614L120.644 42.4128" stroke="white" stroke-miterlimit="10"/>
<path d="M73.9844 42.3099L120.506 99.4589" stroke="white" stroke-miterlimit="10"/>
<path d="M67.5764 41.9036H21.0552V99.0526H67.5764V41.9036Z" stroke="white" stroke-miterlimit="10"/>
<path d="M20.9111 98.9551L67.7145 42.0065" stroke="white" stroke-miterlimit="10"/>
<path d="M21.0552 41.9036L67.5706 99.058" stroke="white" stroke-miterlimit="10"/>
<path d="M44.3102 19.4589C45.7093 19.4589 46.8435 18.3917 46.8435 17.0752C46.8435 15.7587 45.7093 14.6915 44.3102 14.6915C42.9111 14.6915 41.7769 15.7587 41.7769 17.0752C41.7769 18.3917 42.9111 19.4589 44.3102 19.4589Z" fill="white"/>
<path d="M126.92 41.9036L173.435 99.058" stroke="white" stroke-miterlimit="10"/>
<path d="M173.044 10H20.9059C18.1967 10 16.0005 12.0665 16.0005 14.6157V119.384C16.0005 121.933 18.1967 124 20.9059 124H173.044C175.753 124 177.95 121.933 177.95 119.384V14.6157C177.95 12.0665 175.753 10 173.044 10Z" stroke="#03F08D" stroke-miterlimit="10"/>
<path d="M177.949 22.341H16.0002V14.6103C15.9949 14.0098 16.1153 13.4143 16.3546 12.8576C16.5939 12.3009 16.9474 11.7941 17.3949 11.366C17.8424 10.9379 18.3751 10.5969 18.9627 10.3625C19.5502 10.1281 20.1811 10.005 20.8193 10H173.13C173.768 10.005 174.399 10.1281 174.987 10.3625C175.574 10.5969 176.107 10.9379 176.555 11.366C177.002 11.7941 177.356 12.3009 177.595 12.8576C177.834 13.4143 177.955 14.0098 177.949 14.6103V22.341Z" fill="#03F08D"/>
<path d="M24.1642 19.4589C25.5633 19.4589 26.6975 18.3917 26.6975 17.0752C26.6975 15.7587 25.5633 14.6915 24.1642 14.6915C22.7651 14.6915 21.6309 15.7587 21.6309 17.0752C21.6309 18.3917 22.7651 19.4589 24.1642 19.4589Z" fill="white"/>
<path d="M34.1652 19.4589C35.5643 19.4589 36.6985 18.3917 36.6985 17.0752C36.6985 15.7587 35.5643 14.6915 34.1652 14.6915C32.766 14.6915 31.6318 15.7587 31.6318 17.0752C31.6318 18.3917 32.766 19.4589 34.1652 19.4589Z" fill="white"/>
<path d="M114.844 152.543L98.1152 160.585L92.2666 205.214L107.66 211.838L106.885 191.572" fill="#72FFC4"/>
<path d="M114.837 152.536L104.545 162.918L107.66 211.831L132.154 217.029C151.839 212.932 153.458 160.578 153.458 160.578L114.837 152.536Z" fill="#72FFC4"/>
<path d="M104.545 114.786L97.7202 148.888L146.44 162.336L144.301 118.683L104.545 114.786Z" fill="#263281"/>
<path d="M126.001 125.307L126.389 144.991C126.389 144.991 114.311 144.403 110.408 150.84C106.504 157.277 132.238 169.348 141.983 166.814C151.728 164.281 137.138 118.683 137.138 118.683L126.001 125.307Z" fill="#E2E2E2"/>
<path d="M126.271 123.556L124.423 127.065L126.056 129.058L126.243 138.561L137.096 127.688L136.701 122.974L126.271 123.556Z" fill="#E2E2E2"/>
<path d="M96.1493 82.3181C95.0123 84.2792 94.5731 86.5676 94.9035 88.8103C95.8586 95.3234 99.0563 105.851 101.216 115.534C103.078 123.763 110.864 130.885 116.242 132.214C118.772 132.844 121.448 132.464 123.703 131.155L135.311 124.407C137.568 123.092 139.224 120.95 139.927 118.434L147.887 89.9039C148.283 88.4753 148.359 86.9766 148.107 85.5155C147.856 84.0543 147.284 82.6669 146.433 81.4529L135.691 66.1774C134.735 64.8177 133.455 63.7169 131.968 62.974C130.481 62.231 128.833 61.8691 127.171 61.9207L113.197 62.3568C111.496 62.4104 109.837 62.896 108.375 63.7678C106.914 64.6396 105.698 65.869 104.843 67.3402L96.1493 82.3181Z" fill="#E2E2E2"/>
<path d="M158.657 160.703C158.657 160.703 122.347 167.693 122.409 196.95C122.451 213.34 122.409 214.877 122.409 214.877L132.155 217.029H172.686V181.73C172.686 181.73 170.354 164.613 158.657 160.703Z" fill="#03F08D"/>
<path d="M108.843 70.4272C109.596 69.7616 110.527 69.3298 111.521 69.1848C112.516 69.0397 113.531 69.1877 114.443 69.6105C117.627 70.9947 119.841 75.4175 134.362 79.3004C147.416 82.8095 142.737 104.64 134.314 119.285C130.542 125.84 130.639 132.069 134.03 138.831C135.318 141.392 138.377 149.02 139.816 151.214C143.969 157.505 132.604 189.406 132.604 189.406C132.604 189.406 122.859 217.908 155.21 220.601C184.21 223.051 172.956 162.198 169.246 148.307C168.924 147.11 168.531 145.934 168.07 144.784C163.225 132.713 162.595 124.289 166.907 115.762C176.064 97.6352 173.531 43.8491 118.381 45.0188C69.5298 46.057 80.8117 118.081 82.0575 123.078C82.1124 123.295 82.154 123.514 82.1821 123.736C82.5559 126.802 83.6079 139.572 73.3643 150.037C48.8072 175.175 73.5788 203.588 89.145 202.072C115.128 199.539 79.109 182.166 112.892 148.182C119.267 141.766 111.003 131.668 107.459 126.49C100.198 115.894 90.0102 88.3121 108.843 70.4272Z" fill="#404DA1"/>
<path d="M108.843 70.4272C109.596 69.7616 110.527 69.3298 111.521 69.1848C112.516 69.0397 113.531 69.1877 114.443 69.6105C117.627 70.9947 119.841 75.4175 134.362 79.3004C147.416 82.8095 142.737 104.64 134.314 119.285C130.542 125.84 130.639 132.069 134.03 138.831C135.318 141.392 138.377 149.02 139.816 151.214C143.969 157.505 132.604 189.406 132.604 189.406C132.604 189.406 122.859 217.908 155.21 220.601C184.21 223.051 172.956 162.198 169.246 148.307C168.924 147.11 168.531 145.934 168.07 144.784C163.225 132.713 162.595 124.289 166.907 115.762C176.064 97.6352 173.531 43.8491 118.381 45.0188C69.5298 46.057 80.8117 118.081 82.0575 123.078C82.1124 123.295 82.154 123.514 82.1821 123.736C82.5559 126.802 83.6079 139.572 73.3643 150.037C48.8072 175.175 73.5788 203.588 89.145 202.072C115.128 199.539 79.109 182.166 112.892 148.182C119.267 141.766 111.003 131.668 107.459 126.49C100.198 115.894 90.0102 88.3121 108.843 70.4272Z" fill="url(#paint0_linear_811_450)" style="mix-blend-mode:multiply"/>
<path d="M96.7104 204.944C98.6069 205.055 100.254 207.713 102.13 207.484C102.22 209.803 103.064 210.945 104.753 212.447C106.442 213.949 108.269 215.486 110.166 216.863C110.56 217.14 111.273 217.846 111.799 217.867C112.609 217.901 111.993 217.299 111.73 216.891C110.726 215.368 109.148 213.735 108.761 211.88C109.453 213.748 111.585 215.472 113.086 216.683C115.163 218.337 118.194 220.04 120.949 219.943C122.07 219.901 121.745 219.168 121.074 218.559C120.481 218.13 119.859 217.744 119.212 217.403C118.403 216.832 117.635 216.205 116.914 215.527C116.312 214.994 115.765 214.413 115.163 213.88C114.561 213.347 113.626 212.772 112.969 212.122C112.433 211.585 112.049 210.917 111.854 210.184" fill="#E2E2E2"/>
<path d="M122.153 219.022C123.974 218.012 121.856 216.289 121.094 215.313C120.07 214.004 118.866 212.89 117.8 211.617C116.997 210.661 115.723 209.305 115.28 208.156C117.592 209.54 120.195 210.454 122.41 211.963C123.531 212.731 126.251 214.323 125.566 211.769C125.067 209.942 123.427 209.09 121.953 208.101C120.478 207.111 118.921 206.156 117.385 205.214C114.713 203.567 112.339 201.484 109.522 200.044C108.041 199.29 106.2 199.352 104.594 199.117C102.61 198.713 100.596 198.482 98.5722 198.424L95.8452 203.865" fill="#E2E2E2"/>
<path d="M94.8553 206.384C96.8209 206.522 98.7312 207.076 100.718 206.917L100.129 206.709C100.282 208.993 101.811 210.938 103.417 212.454C105.293 214.219 107.348 215.756 109.369 217.334C110.062 217.874 110.671 218.406 111.605 218.337C112.297 218.282 113.522 217.943 113.045 217.064C112.027 215.167 110.276 213.79 109.764 211.61L107.757 212.143C108.684 214.551 111.155 216.42 113.218 217.846C115.412 219.369 118.416 220.87 121.17 220.344C122.042 220.178 123.115 219.652 122.43 218.669C122.004 218.154 121.467 217.743 120.859 217.465C120.232 217.112 119.636 216.704 119.08 216.247C117.897 215.271 116.865 214.122 115.661 213.174C114.457 212.226 113.225 211.471 112.851 209.935C112.719 209.374 110.705 209.886 110.844 210.468C111.143 211.506 111.781 212.415 112.657 213.049C113.647 213.845 114.602 214.62 115.529 215.499C116.432 216.408 117.428 217.22 118.499 217.922C119.027 218.199 119.536 218.511 120.021 218.856C120.243 219.036 120.381 219.265 120.575 219.452L120.644 219.597C120.644 219.95 120.914 219.901 121.336 219.465C121.052 219.427 120.765 219.413 120.478 219.424C120.17 219.389 119.865 219.333 119.565 219.258C118.924 219.094 118.298 218.874 117.696 218.6C116.535 218.075 115.439 217.418 114.429 216.641C112.671 215.299 110.574 213.734 109.757 211.61C109.542 211.056 107.611 211.61 107.75 212.143C108.08 213.301 108.635 214.383 109.383 215.326C109.75 215.832 110.138 216.33 110.498 216.842C110.636 217.036 111.28 217.742 111.148 217.957L111.771 217.493C112.318 217.437 112.38 217.327 111.965 217.168C111.833 217.078 111.702 216.981 111.577 216.877L111.1 216.496C110.511 216.046 109.909 215.61 109.321 215.146C108.248 214.295 107.196 213.409 106.158 212.502C104.261 210.841 102.303 208.827 102.13 206.169C102.13 205.962 101.659 205.948 101.541 205.962C99.7071 206.114 97.9284 205.574 96.115 205.443C95.6108 205.384 95.1033 205.52 94.6961 205.823C94.44 206.066 94.3915 206.349 94.8483 206.384H94.8553Z" fill="#E2E2E2"/>
<path d="M121.924 219.168C124.278 217.694 122 215.707 120.845 214.288C119.869 213.105 118.768 212.032 117.771 210.862C116.824 209.905 116.026 208.811 115.404 207.616L113.619 208.426C115.176 209.332 116.83 210.052 118.429 210.876C119.613 211.485 120.678 212.26 121.848 212.904C122.662 213.445 123.656 213.646 124.617 213.465C125.828 213.118 126.001 212.08 125.641 210.987C125.08 209.697 124.106 208.63 122.873 207.955C121.364 206.952 119.841 205.969 118.297 205.02C116.754 204.072 115.266 203.055 113.785 202.003C112.345 200.897 110.804 199.931 109.182 199.117C107.493 198.348 105.59 198.424 103.79 198.141C101.816 197.76 99.8132 197.552 97.8033 197.518C97.5626 197.522 97.3284 197.596 97.1293 197.731C96.9302 197.867 96.7748 198.057 96.682 198.279L94.4741 206.01C94.2318 206.868 96.2667 206.612 96.4951 205.816L98.7031 198.085L97.5887 198.847C99.1294 198.871 100.665 199.031 102.178 199.324C103.562 199.546 104.946 199.615 106.33 199.85C107.796 200.209 109.17 200.869 110.366 201.788C111.591 202.598 112.767 203.477 113.972 204.314C116.498 206.066 119.211 207.54 121.73 209.312C122.244 209.607 122.69 210.006 123.041 210.482C123.393 210.959 123.642 211.503 123.772 212.08C123.758 212.228 123.758 212.376 123.772 212.523L124.464 212.219H124.34C124.34 212.219 124.257 212.219 124.236 212.219C123.876 212.032 123.482 211.907 123.122 211.7C121.98 211.007 120.907 210.315 119.723 209.699C118.208 208.931 116.65 208.239 115.176 207.388C114.74 207.138 113.058 207.388 113.39 208.197C114.297 210.329 116.207 212.115 117.765 213.783C118.519 214.6 119.225 215.465 119.959 216.302C120.402 216.808 121.495 217.88 120.651 218.42C120.298 218.642 120.139 219.112 120.512 219.362C120.743 219.466 120.998 219.506 121.249 219.48C121.501 219.453 121.741 219.36 121.945 219.209L121.924 219.168Z" fill="#E2E2E2"/>
<path d="M111.466 149.67L110.774 154.515C110.774 154.515 98.5649 191.115 100.662 195.22C101.534 196.922 102.309 196.846 102.344 197.594C102.607 204.716 102.067 207.242 99.0009 208.35C97.9558 208.737 98.0319 207.145 95.8586 207C92.3494 206.765 87.5529 206.709 87.5529 206.709C87.5529 206.709 81.9397 166.448 111.466 149.67Z" fill="#03F08D"/>
<path d="M113.218 118.316C112.861 118.195 112.474 118.195 112.117 118.316C111.557 118.524 111.003 119.008 111.709 120.22C113.412 123.12 117.862 124.372 121.849 118.462C121.849 118.462 115.62 115.575 113.965 118.192C113.813 118.434 113.481 118.399 113.218 118.316Z" fill="#6869AC"/>
<path d="M121.724 118.496C121.724 118.496 118.097 119.431 117.343 119.534C116.379 119.715 115.434 119.984 114.519 120.337C113.771 120.621 118.533 119.714 119.011 119.645C119.934 119.309 120.84 118.926 121.724 118.496Z" fill="#404DA1"/>
<path d="M117.405 97.822L111.826 106.716L112.698 108.792L118.782 108.834C118.782 108.834 116.927 99.9884 117.405 97.822Z" fill="#03F08D"/>
<path d="M120.346 84.6991C126.285 82.2627 128.5 83.4394 135.013 84.0069C135.013 84.0069 128.867 84.2076 127.683 84.4014C126.5 84.5952 121.89 85.1836 120.914 85.7857C119.938 86.3879 120.346 84.6991 120.346 84.6991Z" fill="#03F08D"/>
<path d="M101.707 86.1872C103.922 85.7096 108.788 85.3981 111.314 85.9934L111.1 87.0454C111.1 87.0454 105.189 86.3533 104.386 86.3533C103.216 86.4941 102.059 86.7255 100.925 87.0454L101.707 86.1872Z" fill="#03F08D"/>
<path d="M122.326 90.7414C124.977 86.9001 130.887 88.3813 134.362 89.9801Z" fill="#403F3F"/>
<path d="M123.268 90.783C125.579 87.53 130.611 89.1357 133.573 90.4854C133.808 90.5725 134.059 90.6023 134.307 90.5722C134.555 90.5421 134.793 90.453 134.999 90.3124C135.255 90.1393 135.608 89.6825 135.158 89.4749C130.95 87.5577 124.534 86.2703 121.392 90.7C121.108 91.0945 121.634 91.3229 121.946 91.3437C122.194 91.3609 122.444 91.3191 122.674 91.2216C122.903 91.1242 123.107 90.9739 123.268 90.783V90.783Z" fill="#403F3F"/>
<path d="M102.746 89.731C104.497 89.0803 107.861 89.4126 109.307 90.7484Z" fill="#403F3F"/>
<path d="M102.932 90.4231C103.159 90.3449 103.39 90.2801 103.625 90.2293C103.825 90.1878 103.493 90.2293 103.625 90.2293H103.825L104.241 90.1947C104.365 90.1947 104.497 90.1947 104.628 90.1947H104.898C105.196 90.1947 105.493 90.2363 105.798 90.2778C106.32 90.3316 106.833 90.4574 107.321 90.6515C107.77 90.8079 108.182 91.0553 108.532 91.3783C108.756 91.5058 109.013 91.5628 109.27 91.5418C109.527 91.5208 109.771 91.4228 109.972 91.2606C110.063 91.212 110.142 91.1414 110.2 91.0551C110.258 90.9688 110.294 90.8695 110.304 90.7659C110.314 90.6624 110.299 90.558 110.259 90.4619C110.219 90.3659 110.156 90.2812 110.075 90.2155C109.04 89.4153 107.794 88.9342 106.49 88.8312C105.176 88.6137 103.829 88.7085 102.559 89.1081C102.171 89.2465 101.604 89.5649 101.742 90.0701C101.88 90.5754 102.552 90.6308 102.932 90.4923V90.4231Z" fill="#403F3F"/>
<path d="M106.534 91.9081C106.982 90.9321 106.647 89.82 105.786 89.4242C104.925 89.0283 103.863 89.4987 103.414 90.4747C102.966 91.4507 103.3 92.5628 104.162 92.9587C105.023 93.3545 106.085 92.8842 106.534 91.9081Z" fill="#403F3F" stroke="#403F3F" stroke-miterlimit="10"/>
<path d="M126.285 92.7833C127.508 92.7833 128.5 91.7916 128.5 90.5684C128.5 89.3452 127.508 88.3536 126.285 88.3536C125.061 88.3536 124.07 89.3452 124.07 90.5684C124.07 91.7916 125.061 92.7833 126.285 92.7833Z" fill="#403F3F" stroke="#403F3F" stroke-miterlimit="10"/>
<path d="M78.8304 205.342H78.2408V207.618H77.9158V205.342H77.563V205.067H77.9158V204.889C77.9158 204.612 77.9855 204.408 78.1248 204.277C78.2671 204.146 78.4962 204.081 78.8119 204.081V204.361C78.6014 204.361 78.4528 204.402 78.3662 204.483C78.2826 204.564 78.2408 204.699 78.2408 204.889V205.067H78.8304V205.342Z" fill="#EEEAE7"/>
<path d="M80.4517 207.656C80.2133 207.656 79.9982 207.603 79.8063 207.497C79.6175 207.388 79.4674 207.235 79.356 207.039C79.2476 206.839 79.1935 206.607 79.1935 206.342C79.1935 206.078 79.2492 205.847 79.3606 205.651C79.472 205.451 79.6237 205.299 79.8156 205.193C80.0075 205.084 80.2226 205.029 80.4609 205.029C80.6993 205.029 80.9144 205.084 81.1063 205.193C81.3013 205.299 81.4529 205.451 81.5613 205.651C81.6727 205.847 81.7284 206.078 81.7284 206.342C81.7284 206.604 81.6727 206.835 81.5613 207.034C81.4498 207.233 81.2966 207.388 81.1016 207.497C80.9066 207.603 80.69 207.656 80.4517 207.656ZM80.4517 207.371C80.6188 207.371 80.7735 207.333 80.9159 207.258C81.0583 207.18 81.1728 207.065 81.2595 206.913C81.3492 206.757 81.3941 206.567 81.3941 206.342C81.3941 206.118 81.3508 205.93 81.2641 205.777C81.1775 205.621 81.0629 205.506 80.9206 205.431C80.7782 205.353 80.6234 205.314 80.4563 205.314C80.2892 205.314 80.1344 205.353 79.992 205.431C79.8496 205.506 79.7351 205.621 79.6485 205.777C79.5649 205.93 79.5231 206.118 79.5231 206.342C79.5231 206.567 79.5649 206.757 79.6485 206.913C79.7351 207.065 79.8481 207.18 79.9874 207.258C80.1298 207.333 80.2845 207.371 80.4517 207.371Z" fill="#EEEAE7"/>
<path d="M83.5093 205.02C83.8127 205.02 84.0603 205.115 84.2522 205.305C84.4441 205.492 84.54 205.765 84.54 206.123V207.618H84.2197V206.16C84.2197 205.883 84.15 205.671 84.0107 205.525C83.8746 205.378 83.6873 205.305 83.449 205.305C83.2045 205.305 83.0095 205.383 82.864 205.539C82.7185 205.694 82.6458 205.923 82.6458 206.226V207.618H82.3208V205.067H82.6458V205.501C82.7263 205.346 82.8423 205.227 82.994 205.146C83.1457 205.062 83.3174 205.02 83.5093 205.02Z" fill="#EEEAE7"/>
<path d="M85.6812 205.342V206.927C85.6812 207.082 85.7107 207.19 85.7695 207.249C85.8283 207.308 85.932 207.338 86.0805 207.338H86.3777V207.618H86.0294C85.8004 207.618 85.6302 207.565 85.5188 207.459C85.4073 207.35 85.3516 207.173 85.3516 206.927V205.342H84.9988V205.067H85.3516V204.427H85.6812V205.067H86.3777V205.342H85.6812Z" fill="#EEEAE7"/>
<path d="M88.4875 205.749V206.025H86.6815V205.749H88.4875Z" fill="#EEEAE7"/>
<path d="M90.3193 205.342H89.7297V207.618H89.4047V205.342H89.0518V205.067H89.4047V204.889C89.4047 204.612 89.4743 204.408 89.6136 204.277C89.756 204.146 89.985 204.081 90.3007 204.081V204.361C90.0903 204.361 89.9417 204.402 89.855 204.483C89.7715 204.564 89.7297 204.699 89.7297 204.889V205.067H90.3193V205.342Z" fill="#EEEAE7"/>
<path d="M90.6823 206.338C90.6823 206.076 90.7334 205.847 90.8355 205.651C90.9408 205.451 91.0847 205.299 91.2673 205.193C91.453 205.084 91.6619 205.029 91.8941 205.029C92.1355 205.029 92.3429 205.085 92.5162 205.198C92.6926 205.31 92.8195 205.453 92.8969 205.628V205.067H93.2219V207.618H92.8969V207.053C92.8164 207.227 92.688 207.372 92.5116 207.487C92.3382 207.599 92.1309 207.656 91.8894 207.656C91.6604 207.656 91.453 207.601 91.2673 207.492C91.0847 207.383 90.9408 207.229 90.8355 207.029C90.7334 206.83 90.6823 206.599 90.6823 206.338ZM92.8969 206.342C92.8969 206.137 92.8551 205.956 92.7715 205.8C92.688 205.645 92.5735 205.525 92.428 205.441C92.2856 205.356 92.1278 205.314 91.9544 205.314C91.7749 205.314 91.614 205.355 91.4716 205.436C91.3292 205.517 91.2162 205.635 91.1327 205.791C91.0522 205.944 91.012 206.126 91.012 206.338C91.012 206.547 91.0522 206.73 91.1327 206.889C91.2162 207.045 91.3292 207.165 91.4716 207.249C91.614 207.33 91.7749 207.371 91.9544 207.371C92.1278 207.371 92.2856 207.328 92.428 207.244C92.5735 207.16 92.688 207.04 92.7715 206.885C92.8551 206.729 92.8969 206.548 92.8969 206.342Z" fill="#EEEAE7"/>
<path d="M96.9816 205.02C97.2787 205.02 97.5201 205.115 97.7058 205.305C97.8946 205.492 97.989 205.765 97.989 206.123V207.618H97.6687V206.16C97.6687 205.883 97.6021 205.671 97.469 205.525C97.336 205.378 97.1549 205.305 96.9259 205.305C96.6875 205.305 96.4972 205.385 96.3548 205.543C96.2124 205.702 96.1412 205.933 96.1412 206.235V207.618H95.8209V206.16C95.8209 205.883 95.7543 205.671 95.6213 205.525C95.4882 205.378 95.3056 205.305 95.0734 205.305C94.8351 205.305 94.6447 205.385 94.5024 205.543C94.36 205.702 94.2888 205.933 94.2888 206.235V207.618H93.9638V205.067H94.2888V205.506C94.3693 205.347 94.4838 205.227 94.6324 205.146C94.7809 205.062 94.9465 205.02 95.1291 205.02C95.3489 205.02 95.5408 205.073 95.7048 205.179C95.872 205.285 95.9927 205.441 96.067 205.646C96.135 205.444 96.2511 205.29 96.4152 205.184C96.5823 205.075 96.7711 205.02 96.9816 205.02Z" fill="#EEEAE7"/>
<path d="M98.8733 204.585C98.8083 204.585 98.7526 204.562 98.7061 204.515C98.6597 204.469 98.6365 204.411 98.6365 204.342C98.6365 204.274 98.6597 204.218 98.7061 204.174C98.7526 204.127 98.8083 204.104 98.8733 204.104C98.9383 204.104 98.994 204.127 99.0404 204.174C99.0868 204.218 99.1101 204.274 99.1101 204.342C99.1101 204.411 99.0868 204.469 99.0404 204.515C98.994 204.562 98.9383 204.585 98.8733 204.585ZM99.0358 205.067V207.618H98.7108V205.067H99.0358Z" fill="#EEEAE7"/>
<path d="M100.097 204.16V207.618H99.7717V204.16H100.097Z" fill="#EEEAE7"/>
<path d="M102.922 205.067L101.418 208.819H101.079L101.571 207.604L100.531 205.067H100.888L101.752 207.244L102.588 205.067H102.922Z" fill="#EEEAE7"/>
<path d="M103.418 207.642C103.35 207.642 103.293 207.618 103.246 207.571C103.203 207.525 103.181 207.467 103.181 207.399C103.181 207.33 103.203 207.274 103.246 207.23C103.293 207.184 103.35 207.16 103.418 207.16C103.483 207.16 103.537 207.184 103.581 207.23C103.627 207.274 103.65 207.33 103.65 207.399C103.65 207.467 103.627 207.525 103.581 207.571C103.537 207.618 103.483 207.642 103.418 207.642ZM103.418 205.609C103.35 205.609 103.293 205.585 103.246 205.539C103.203 205.492 103.181 205.434 103.181 205.366C103.181 205.297 103.203 205.241 103.246 205.198C103.293 205.151 103.35 205.128 103.418 205.128C103.483 205.128 103.537 205.151 103.581 205.198C103.627 205.241 103.65 205.297 103.65 205.366C103.65 205.434 103.627 205.492 103.581 205.539C103.537 205.585 103.483 205.609 103.418 205.609Z" fill="#EEEAE7"/>
<path d="M107.374 206.842H105.897L105.614 207.618H105.271L106.455 204.394H106.821L108.001 207.618H107.657L107.374 206.842ZM107.276 206.571L106.636 204.805L105.995 206.571H107.276Z" fill="#EEEAE7"/>
<path d="M108.847 205.52C108.918 205.361 109.027 205.238 109.172 205.151C109.321 205.064 109.502 205.02 109.715 205.02V205.361H109.627C109.392 205.361 109.203 205.425 109.061 205.553C108.918 205.68 108.847 205.894 108.847 206.193V207.618H108.522V205.067H108.847V205.52Z" fill="#EEEAE7"/>
<path d="M110.367 204.585C110.302 204.585 110.246 204.562 110.2 204.515C110.153 204.469 110.13 204.411 110.13 204.342C110.13 204.274 110.153 204.218 110.2 204.174C110.246 204.127 110.302 204.104 110.367 204.104C110.432 204.104 110.487 204.127 110.534 204.174C110.58 204.218 110.603 204.274 110.603 204.342C110.603 204.411 110.58 204.469 110.534 204.515C110.487 204.562 110.432 204.585 110.367 204.585ZM110.529 205.067V207.618H110.204V205.067H110.529Z" fill="#EEEAE7"/>
<path d="M111.117 206.338C111.117 206.076 111.168 205.847 111.27 205.651C111.375 205.451 111.519 205.299 111.702 205.193C111.887 205.084 112.096 205.029 112.328 205.029C112.57 205.029 112.777 205.085 112.95 205.198C113.127 205.31 113.254 205.453 113.331 205.628V205.067H113.656V207.618H113.331V207.053C113.251 207.227 113.122 207.372 112.946 207.487C112.772 207.599 112.565 207.656 112.324 207.656C112.095 207.656 111.887 207.601 111.702 207.492C111.519 207.383 111.375 207.229 111.27 207.029C111.168 206.83 111.117 206.599 111.117 206.338ZM113.331 206.342C113.331 206.137 113.289 205.956 113.206 205.8C113.122 205.645 113.008 205.525 112.862 205.441C112.72 205.356 112.562 205.314 112.389 205.314C112.209 205.314 112.048 205.355 111.906 205.436C111.763 205.517 111.65 205.635 111.567 205.791C111.486 205.944 111.446 206.126 111.446 206.338C111.446 206.547 111.486 206.73 111.567 206.889C111.65 207.045 111.763 207.165 111.906 207.249C112.048 207.33 112.209 207.371 112.389 207.371C112.562 207.371 112.72 207.328 112.862 207.244C113.008 207.16 113.122 207.04 113.206 206.885C113.289 206.729 113.331 206.548 113.331 206.342Z" fill="#EEEAE7"/>
<path d="M114.723 204.16V207.618H114.398V204.16H114.723Z" fill="#EEEAE7"/>
<path d="M115.756 207.076L115.273 208.3H115.05L115.394 207.076H115.756Z" fill="#EEEAE7"/>
<path d="M116.401 203.903L116.345 204.805H116.118L116.062 203.903H116.401Z" fill="#EEEAE7"/>
<path d="M119.356 204.352V207.618H119.031V206.09H117.271V207.618H116.946V204.352H117.271V205.819H119.031V204.352H119.356Z" fill="#EEEAE7"/>
<path d="M122.391 206.212C122.391 206.324 122.388 206.409 122.381 206.469H120.278C120.287 206.662 120.334 206.827 120.417 206.964C120.501 207.101 120.611 207.205 120.747 207.277C120.883 207.346 121.032 207.38 121.193 207.38C121.403 207.38 121.58 207.328 121.722 207.226C121.868 207.123 121.963 206.984 122.01 206.81H122.353C122.292 207.059 122.158 207.263 121.954 207.422C121.753 207.578 121.499 207.656 121.193 207.656C120.954 207.656 120.741 207.603 120.552 207.497C120.363 207.388 120.215 207.235 120.106 207.039C120.001 206.839 119.949 206.607 119.949 206.342C119.949 206.078 120.001 205.846 120.106 205.646C120.212 205.447 120.359 205.294 120.547 205.188C120.736 205.082 120.951 205.029 121.193 205.029C121.434 205.029 121.645 205.082 121.824 205.188C122.007 205.294 122.146 205.437 122.242 205.618C122.341 205.796 122.391 205.994 122.391 206.212ZM122.061 206.202C122.064 206.012 122.025 205.85 121.945 205.716C121.868 205.582 121.761 205.481 121.625 205.413C121.488 205.344 121.34 205.31 121.179 205.31C120.937 205.31 120.732 205.388 120.561 205.543C120.391 205.699 120.297 205.919 120.278 206.202H122.061Z" fill="#EEEAE7"/>
<path d="M123.31 204.16V207.618H122.985V204.16H123.31Z" fill="#EEEAE7"/>
<path d="M124.947 207.3L125.801 205.067H126.145L125.128 207.618H124.761L123.744 205.067H124.093L124.947 207.3Z" fill="#EEEAE7"/>
<path d="M128.879 206.212C128.879 206.324 128.875 206.409 128.869 206.469H126.766C126.775 206.662 126.822 206.827 126.905 206.964C126.989 207.101 127.099 207.205 127.235 207.277C127.371 207.346 127.52 207.38 127.681 207.38C127.891 207.38 128.068 207.328 128.21 207.226C128.356 207.123 128.451 206.984 128.498 206.81H128.841C128.78 207.059 128.646 207.263 128.442 207.422C128.241 207.578 127.987 207.656 127.681 207.656C127.442 207.656 127.229 207.603 127.04 207.497C126.851 207.388 126.703 207.235 126.594 207.039C126.489 206.839 126.437 206.607 126.437 206.342C126.437 206.078 126.489 205.846 126.594 205.646C126.7 205.447 126.847 205.294 127.035 205.188C127.224 205.082 127.439 205.029 127.681 205.029C127.922 205.029 128.133 205.082 128.312 205.188C128.495 205.294 128.634 205.437 128.73 205.618C128.829 205.796 128.879 205.994 128.879 206.212ZM128.549 206.202C128.552 206.012 128.513 205.85 128.433 205.716C128.356 205.582 128.249 205.481 128.113 205.413C127.976 205.344 127.828 205.31 127.667 205.31C127.425 205.31 127.22 205.388 127.049 205.543C126.879 205.699 126.785 205.919 126.766 206.202H128.549Z" fill="#EEEAE7"/>
<path d="M129.896 205.342V206.927C129.896 207.082 129.925 207.19 129.984 207.249C130.043 207.308 130.146 207.338 130.295 207.338H130.592V207.618H130.244C130.015 207.618 129.845 207.565 129.733 207.459C129.622 207.35 129.566 207.173 129.566 206.927V205.342H129.213V205.067H129.566V204.427H129.896V205.067H130.592V205.342H129.896Z" fill="#EEEAE7"/>
<path d="M131.291 204.585C131.226 204.585 131.17 204.562 131.123 204.515C131.077 204.469 131.054 204.411 131.054 204.342C131.054 204.274 131.077 204.218 131.123 204.174C131.17 204.127 131.226 204.104 131.291 204.104C131.356 204.104 131.411 204.127 131.458 204.174C131.504 204.218 131.527 204.274 131.527 204.342C131.527 204.411 131.504 204.469 131.458 204.515C131.411 204.562 131.356 204.585 131.291 204.585ZM131.453 205.067V207.618H131.128V205.067H131.453Z" fill="#EEEAE7"/>
<path d="M132.04 206.342C132.04 206.078 132.093 205.847 132.198 205.651C132.303 205.451 132.449 205.299 132.635 205.193C132.82 205.084 133.032 205.029 133.271 205.029C133.583 205.029 133.84 205.107 134.041 205.263C134.246 205.419 134.377 205.631 134.436 205.899H134.088C134.044 205.715 133.95 205.571 133.805 205.469C133.662 205.363 133.484 205.31 133.271 205.31C133.1 205.31 132.947 205.349 132.811 205.427C132.675 205.504 132.567 205.621 132.486 205.777C132.409 205.93 132.37 206.118 132.37 206.342C132.37 206.567 132.409 206.757 132.486 206.913C132.567 207.068 132.675 207.185 132.811 207.263C132.947 207.341 133.1 207.38 133.271 207.38C133.484 207.38 133.662 207.328 133.805 207.226C133.95 207.12 134.044 206.973 134.088 206.786H134.436C134.377 207.048 134.246 207.258 134.041 207.417C133.837 207.576 133.58 207.656 133.271 207.656C133.032 207.656 132.82 207.603 132.635 207.497C132.449 207.388 132.303 207.235 132.198 207.039C132.093 206.839 132.04 206.607 132.04 206.342Z" fill="#EEEAE7"/>
<path d="M134.888 206.338C134.888 206.076 134.939 205.847 135.041 205.651C135.146 205.451 135.29 205.299 135.473 205.193C135.658 205.084 135.867 205.029 136.099 205.029C136.341 205.029 136.548 205.085 136.722 205.198C136.898 205.31 137.025 205.453 137.102 205.628V205.067H137.427V207.618H137.102V207.053C137.022 207.227 136.893 207.372 136.717 207.487C136.544 207.599 136.336 207.656 136.095 207.656C135.866 207.656 135.658 207.601 135.473 207.492C135.29 207.383 135.146 207.229 135.041 207.029C134.939 206.83 134.888 206.599 134.888 206.338ZM137.102 206.342C137.102 206.137 137.06 205.956 136.977 205.8C136.893 205.645 136.779 205.525 136.633 205.441C136.491 205.356 136.333 205.314 136.16 205.314C135.98 205.314 135.819 205.355 135.677 205.436C135.535 205.517 135.422 205.635 135.338 205.791C135.258 205.944 135.217 206.126 135.217 206.338C135.217 206.547 135.258 206.73 135.338 206.889C135.422 207.045 135.535 207.165 135.677 207.249C135.819 207.33 135.98 207.371 136.16 207.371C136.333 207.371 136.491 207.328 136.633 207.244C136.779 207.16 136.893 207.04 136.977 206.885C137.06 206.729 137.102 206.548 137.102 206.342Z" fill="#EEEAE7"/>
<path d="M80.279 214.807H79.954L78.1573 212.06V214.807H77.8323V211.541H78.1573L79.954 214.284V211.541H80.279V214.807Z" fill="#EEEAE7"/>
<path d="M83.3085 213.401C83.3085 213.513 83.3054 213.599 83.2993 213.658H81.1961C81.2054 213.851 81.2518 214.016 81.3354 214.153C81.419 214.29 81.5288 214.395 81.665 214.466C81.8012 214.535 81.9498 214.569 82.1107 214.569C82.3212 214.569 82.4976 214.518 82.64 214.415C82.7855 214.312 82.8814 214.173 82.9278 213.999H83.2714C83.2095 214.248 83.0764 214.452 82.8721 214.611C82.6709 214.767 82.4171 214.845 82.1107 214.845C81.8724 214.845 81.6588 214.792 81.47 214.686C81.2812 214.577 81.1327 214.424 81.0243 214.228C80.9191 214.028 80.8665 213.796 80.8665 213.532C80.8665 213.267 80.9191 213.035 81.0243 212.835C81.1296 212.636 81.2766 212.483 81.4654 212.377C81.6542 212.271 81.8693 212.219 82.1107 212.219C82.3521 212.219 82.5626 212.271 82.7421 212.377C82.9247 212.483 83.064 212.627 83.16 212.807C83.259 212.985 83.3085 213.183 83.3085 213.401ZM82.9789 213.391C82.982 213.201 82.9433 213.039 82.8628 212.905C82.7855 212.771 82.6787 212.67 82.5425 212.602C82.4063 212.533 82.2577 212.499 82.0968 212.499C81.8554 212.499 81.6496 212.577 81.4793 212.733C81.3091 212.888 81.2147 213.108 81.1961 213.391H82.9789Z" fill="#EEEAE7"/>
<path d="M86.0991 212.256V214.807H85.7741V214.359C85.6999 214.518 85.5853 214.639 85.4306 214.723C85.2758 214.807 85.1025 214.849 84.9106 214.849C84.6073 214.849 84.3597 214.756 84.1678 214.569C83.9759 214.379 83.8799 214.105 83.8799 213.747V212.256H84.2003V213.709C84.2003 213.986 84.2684 214.198 84.4045 214.345C84.5438 214.491 84.7326 214.564 84.971 214.564C85.2155 214.564 85.4105 214.486 85.5559 214.331C85.7014 214.175 85.7741 213.946 85.7741 213.644V212.256H86.0991Z" fill="#EEEAE7"/>
<path d="M89.1346 213.401C89.1346 213.513 89.1315 213.599 89.1253 213.658H87.0222C87.0314 213.851 87.0779 214.016 87.1614 214.153C87.245 214.29 87.3549 214.395 87.4911 214.466C87.6273 214.535 87.7758 214.569 87.9368 214.569C88.1472 214.569 88.3237 214.518 88.466 214.415C88.6115 214.312 88.7075 214.173 88.7539 213.999H89.0974C89.0355 214.248 88.9024 214.452 88.6982 214.611C88.497 214.767 88.2432 214.845 87.9368 214.845C87.6984 214.845 87.4849 214.792 87.2961 214.686C87.1073 214.577 86.9587 214.424 86.8504 214.228C86.7451 214.028 86.6925 213.796 86.6925 213.532C86.6925 213.267 86.7451 213.035 86.8504 212.835C86.9556 212.636 87.1026 212.483 87.2914 212.377C87.4802 212.271 87.6953 212.219 87.9368 212.219C88.1782 212.219 88.3887 212.271 88.5682 212.377C88.7508 212.483 88.8901 212.627 88.986 212.807C89.0851 212.985 89.1346 213.183 89.1346 213.401ZM88.8049 213.391C88.808 213.201 88.7694 213.039 88.6889 212.905C88.6115 212.771 88.5047 212.67 88.3685 212.602C88.2323 212.533 88.0838 212.499 87.9228 212.499C87.6814 212.499 87.4756 212.577 87.3054 212.733C87.1351 212.888 87.0407 213.108 87.0222 213.391H88.8049Z" fill="#EEEAE7"/>
<path d="M89.8685 211.092L89.8127 211.994H89.5852L89.5295 211.092H89.8685Z" fill="#EEEAE7"/>
<path d="M90.7109 214.265L90.2281 215.49H90.0052L90.3488 214.265H90.7109Z" fill="#EEEAE7"/>
<path d="M93.6258 211.541V214.807H93.3009V213.279H91.5413V214.807H91.2163V211.541H91.5413V213.008H93.3009V211.541H93.6258Z" fill="#EEEAE7"/>
<path d="M96.6608 213.401C96.6608 213.513 96.6577 213.599 96.6515 213.658H94.5484C94.5577 213.851 94.6041 214.016 94.6877 214.153C94.7712 214.29 94.8811 214.395 95.0173 214.466C95.1535 214.535 95.3021 214.569 95.463 214.569C95.6735 214.569 95.8499 214.518 95.9923 214.415C96.1377 214.312 96.2337 214.173 96.2801 213.999H96.6237C96.5618 214.248 96.4287 214.452 96.2244 214.611C96.0232 214.767 95.7694 214.845 95.463 214.845C95.2247 214.845 95.0111 214.792 94.8223 214.686C94.6335 214.577 94.4849 214.424 94.3766 214.228C94.2714 214.028 94.2188 213.796 94.2188 213.532C94.2188 213.267 94.2714 213.035 94.3766 212.835C94.4819 212.636 94.6289 212.483 94.8177 212.377C95.0065 212.271 95.2216 212.219 95.463 212.219C95.7044 212.219 95.9149 212.271 96.0944 212.377C96.277 212.483 96.4163 212.627 96.5123 212.807C96.6113 212.985 96.6608 213.183 96.6608 213.401ZM96.3312 213.391C96.3343 213.201 96.2956 213.039 96.2151 212.905C96.1377 212.771 96.031 212.67 95.8948 212.602C95.7586 212.533 95.61 212.499 95.4491 212.499C95.2077 212.499 95.0018 212.577 94.8316 212.733C94.6614 212.888 94.567 213.108 94.5484 213.391H96.3312Z" fill="#EEEAE7"/>
<path d="M97.5804 211.349V214.807H97.2554V211.349H97.5804Z" fill="#EEEAE7"/>
<path d="M99.217 214.49L100.071 212.256H100.415L99.3981 214.807H99.0313L98.0146 212.256H98.3628L99.217 214.49Z" fill="#EEEAE7"/>
<path d="M103.149 213.401C103.149 213.513 103.146 213.599 103.14 213.658H101.036C101.046 213.851 101.092 214.016 101.176 214.153C101.259 214.29 101.369 214.395 101.505 214.466C101.641 214.535 101.79 214.569 101.951 214.569C102.161 214.569 102.338 214.518 102.48 214.415C102.626 214.312 102.722 214.173 102.768 213.999H103.112C103.05 214.248 102.917 214.452 102.712 214.611C102.511 214.767 102.257 214.845 101.951 214.845C101.713 214.845 101.499 214.792 101.31 214.686C101.121 214.577 100.973 214.424 100.865 214.228C100.759 214.028 100.707 213.796 100.707 213.532C100.707 213.267 100.759 213.035 100.865 212.835C100.97 212.636 101.117 212.483 101.306 212.377C101.494 212.271 101.71 212.219 101.951 212.219C102.192 212.219 102.403 212.271 102.582 212.377C102.765 212.483 102.904 212.627 103 212.807C103.099 212.985 103.149 213.183 103.149 213.401ZM102.819 213.391C102.822 213.201 102.784 213.039 102.703 212.905C102.626 212.771 102.519 212.67 102.383 212.602C102.247 212.533 102.098 212.499 101.937 212.499C101.696 212.499 101.49 212.577 101.32 212.733C101.149 212.888 101.055 213.108 101.036 213.391H102.819Z" fill="#EEEAE7"/>
<path d="M104.166 212.532V214.116C104.166 214.271 104.195 214.379 104.254 214.438C104.313 214.497 104.417 214.527 104.565 214.527H104.862V214.807H104.514C104.285 214.807 104.115 214.754 104.003 214.648C103.892 214.539 103.836 214.362 103.836 214.116V212.532H103.483V212.256H103.836V211.616H104.166V212.256H104.862V212.532H104.166Z" fill="#EEEAE7"/>
<path d="M105.561 211.775C105.496 211.775 105.44 211.751 105.394 211.704C105.347 211.658 105.324 211.6 105.324 211.532C105.324 211.463 105.347 211.407 105.394 211.363C105.44 211.317 105.496 211.293 105.561 211.293C105.626 211.293 105.681 211.317 105.728 211.363C105.774 211.407 105.798 211.463 105.798 211.532C105.798 211.6 105.774 211.658 105.728 211.704C105.681 211.751 105.626 211.775 105.561 211.775ZM105.723 212.256V214.807H105.398V212.256H105.723Z" fill="#EEEAE7"/>
<path d="M106.311 213.532C106.311 213.267 106.363 213.036 106.468 212.84C106.574 212.641 106.719 212.488 106.905 212.382C107.091 212.273 107.303 212.219 107.541 212.219C107.854 212.219 108.11 212.296 108.312 212.452C108.516 212.608 108.647 212.82 108.706 213.088H108.358C108.315 212.904 108.22 212.761 108.075 212.658C107.932 212.552 107.755 212.499 107.541 212.499C107.371 212.499 107.217 212.538 107.081 212.616C106.945 212.694 106.837 212.81 106.756 212.966C106.679 213.119 106.64 213.307 106.64 213.532C106.64 213.756 106.679 213.946 106.756 214.102C106.837 214.257 106.945 214.374 107.081 214.452C107.217 214.53 107.371 214.569 107.541 214.569C107.755 214.569 107.932 214.518 108.075 214.415C108.22 214.309 108.315 214.162 108.358 213.976H108.706C108.647 214.237 108.516 214.447 108.312 214.606C108.107 214.765 107.85 214.845 107.541 214.845C107.303 214.845 107.091 214.792 106.905 214.686C106.719 214.577 106.574 214.424 106.468 214.228C106.363 214.028 106.311 213.796 106.311 213.532Z" fill="#EEEAE7"/>
<path d="M109.158 213.527C109.158 213.265 109.209 213.036 109.311 212.84C109.416 212.641 109.56 212.488 109.743 212.382C109.929 212.273 110.138 212.219 110.37 212.219C110.611 212.219 110.818 212.275 110.992 212.387C111.168 212.499 111.295 212.642 111.372 212.817V212.256H111.697V214.807H111.372V214.242C111.292 214.416 111.164 214.561 110.987 214.676C110.814 214.789 110.606 214.845 110.365 214.845C110.136 214.845 109.929 214.79 109.743 214.681C109.56 214.572 109.416 214.418 109.311 214.219C109.209 214.019 109.158 213.789 109.158 213.527ZM111.372 213.532C111.372 213.326 111.331 213.145 111.247 212.99C111.164 212.834 111.049 212.714 110.904 212.63C110.761 212.546 110.603 212.504 110.43 212.504C110.25 212.504 110.09 212.544 109.947 212.625C109.805 212.706 109.692 212.824 109.608 212.98C109.528 213.133 109.488 213.315 109.488 213.527C109.488 213.736 109.528 213.919 109.608 214.078C109.692 214.234 109.805 214.354 109.947 214.438C110.09 214.519 110.25 214.56 110.43 214.56C110.603 214.56 110.761 214.518 110.904 214.433C111.049 214.349 111.164 214.229 111.247 214.074C111.331 213.918 111.372 213.737 111.372 213.532Z" fill="#EEEAE7"/>
<path d="M112.737 214.265L112.254 215.49H112.031L112.374 214.265H112.737Z" fill="#EEEAE7"/>
<path d="M114.115 214.845C113.824 214.845 113.585 214.778 113.4 214.644C113.217 214.507 113.115 214.321 113.093 214.088H113.428C113.443 214.231 113.51 214.348 113.627 214.438C113.748 214.525 113.909 214.569 114.11 214.569C114.286 214.569 114.424 214.527 114.523 214.443C114.625 214.359 114.676 214.254 114.676 214.13C114.676 214.043 114.649 213.971 114.593 213.915C114.537 213.859 114.466 213.815 114.379 213.784C114.296 213.75 114.181 213.714 114.036 213.676C113.847 213.627 113.694 213.577 113.576 213.527C113.459 213.477 113.358 213.404 113.274 213.307C113.194 213.208 113.154 213.075 113.154 212.91C113.154 212.785 113.191 212.67 113.265 212.564C113.339 212.458 113.445 212.374 113.581 212.312C113.717 212.25 113.872 212.219 114.045 212.219C114.317 212.219 114.537 212.289 114.704 212.429C114.871 212.566 114.961 212.756 114.974 212.999H114.649C114.639 212.849 114.581 212.729 114.472 212.639C114.367 212.546 114.221 212.499 114.036 212.499C113.872 212.499 113.739 212.538 113.637 212.616C113.534 212.694 113.483 212.79 113.483 212.905C113.483 213.005 113.513 213.088 113.572 213.153C113.633 213.215 113.709 213.265 113.799 213.303C113.889 213.337 114.009 213.376 114.161 213.419C114.344 213.469 114.489 213.518 114.598 213.564C114.706 213.611 114.799 213.68 114.876 213.77C114.953 213.86 114.994 213.98 114.997 214.13C114.997 214.267 114.96 214.39 114.885 214.499C114.811 214.605 114.707 214.689 114.574 214.751C114.441 214.814 114.288 214.845 114.115 214.845Z" fill="#EEEAE7"/>
<path d="M115.46 213.527C115.46 213.265 115.511 213.036 115.613 212.84C115.718 212.641 115.862 212.488 116.045 212.382C116.231 212.273 116.44 212.219 116.672 212.219C116.913 212.219 117.121 212.275 117.294 212.387C117.47 212.499 117.597 212.642 117.675 212.817V212.256H118V214.807H117.675V214.242C117.594 214.416 117.466 214.561 117.289 214.676C117.116 214.789 116.909 214.845 116.667 214.845C116.438 214.845 116.231 214.79 116.045 214.681C115.862 214.572 115.718 214.418 115.613 214.219C115.511 214.019 115.46 213.789 115.46 213.527ZM117.675 213.532C117.675 213.326 117.633 213.145 117.549 212.99C117.466 212.834 117.351 212.714 117.206 212.63C117.063 212.546 116.905 212.504 116.732 212.504C116.553 212.504 116.392 212.544 116.249 212.625C116.107 212.706 115.994 212.824 115.91 212.98C115.83 213.133 115.79 213.315 115.79 213.527C115.79 213.736 115.83 213.919 115.91 214.078C115.994 214.234 116.107 214.354 116.249 214.438C116.392 214.519 116.553 214.56 116.732 214.56C116.905 214.56 117.063 214.518 117.206 214.433C117.351 214.349 117.466 214.229 117.549 214.074C117.633 213.918 117.675 213.737 117.675 213.532Z" fill="#EEEAE7"/>
<path d="M119.93 212.209C120.233 212.209 120.481 212.304 120.673 212.494C120.865 212.681 120.961 212.954 120.961 213.312V214.807H120.64V213.349C120.64 213.072 120.571 212.86 120.431 212.714C120.295 212.567 120.108 212.494 119.87 212.494C119.625 212.494 119.43 212.572 119.285 212.728C119.139 212.884 119.066 213.113 119.066 213.415V214.807H118.741V212.256H119.066V212.69C119.147 212.535 119.263 212.416 119.415 212.335C119.566 212.251 119.738 212.209 119.93 212.209Z" fill="#EEEAE7"/>
<path d="M122.552 214.845C122.261 214.845 122.023 214.778 121.837 214.644C121.655 214.507 121.553 214.321 121.531 214.088H121.865C121.881 214.231 121.947 214.348 122.065 214.438C122.185 214.525 122.346 214.569 122.548 214.569C122.724 214.569 122.862 214.527 122.961 214.443C123.063 214.359 123.114 214.254 123.114 214.13C123.114 214.043 123.086 213.971 123.03 213.915C122.975 213.859 122.904 213.815 122.817 213.784C122.733 213.75 122.619 213.714 122.473 213.676C122.285 213.627 122.131 213.577 122.014 213.527C121.896 213.477 121.795 213.404 121.712 213.307C121.631 213.208 121.591 213.075 121.591 212.91C121.591 212.785 121.628 212.67 121.703 212.564C121.777 212.458 121.882 212.374 122.018 212.312C122.155 212.25 122.309 212.219 122.483 212.219C122.755 212.219 122.975 212.289 123.142 212.429C123.309 212.566 123.399 212.756 123.411 212.999H123.086C123.077 212.849 123.018 212.729 122.91 212.639C122.805 212.546 122.659 212.499 122.473 212.499C122.309 212.499 122.176 212.538 122.074 212.616C121.972 212.694 121.921 212.79 121.921 212.905C121.921 213.005 121.95 213.088 122.009 213.153C122.071 213.215 122.147 213.265 122.237 213.303C122.326 213.337 122.447 213.376 122.599 213.419C122.781 213.469 122.927 213.518 123.035 213.564C123.143 213.611 123.236 213.68 123.314 213.77C123.391 213.86 123.431 213.98 123.434 214.13C123.434 214.267 123.397 214.39 123.323 214.499C123.249 214.605 123.145 214.689 123.012 214.751C122.879 214.814 122.726 214.845 122.552 214.845Z" fill="#EEEAE7"/>
<path d="M125.62 212.938V213.214H123.814V212.938H125.62Z" fill="#EEEAE7"/>
<path d="M127.326 214.845C127.035 214.845 126.797 214.778 126.611 214.644C126.429 214.507 126.327 214.321 126.305 214.088H126.639C126.655 214.231 126.721 214.348 126.839 214.438C126.96 214.525 127.121 214.569 127.322 214.569C127.498 214.569 127.636 214.527 127.735 214.443C127.837 214.359 127.888 214.254 127.888 214.13C127.888 214.043 127.86 213.971 127.805 213.915C127.749 213.859 127.678 213.815 127.591 213.784C127.508 213.75 127.393 213.714 127.248 213.676C127.059 213.627 126.905 213.577 126.788 213.527C126.67 213.477 126.57 213.404 126.486 213.307C126.406 213.208 126.365 213.075 126.365 212.91C126.365 212.785 126.403 212.67 126.477 212.564C126.551 212.458 126.656 212.374 126.793 212.312C126.929 212.25 127.083 212.219 127.257 212.219C127.529 212.219 127.749 212.289 127.916 212.429C128.083 212.566 128.173 212.756 128.185 212.999H127.86C127.851 212.849 127.792 212.729 127.684 212.639C127.579 212.546 127.433 212.499 127.248 212.499C127.083 212.499 126.95 212.538 126.848 212.616C126.746 212.694 126.695 212.79 126.695 212.905C126.695 213.005 126.724 213.088 126.783 213.153C126.845 213.215 126.921 213.265 127.011 213.303C127.1 213.337 127.221 213.376 127.373 213.419C127.555 213.469 127.701 213.518 127.809 213.564C127.918 213.611 128.01 213.68 128.088 213.77C128.165 213.86 128.205 213.98 128.209 214.13C128.209 214.267 128.171 214.39 128.097 214.499C128.023 214.605 127.919 214.689 127.786 214.751C127.653 214.814 127.5 214.845 127.326 214.845Z" fill="#EEEAE7"/>
<path d="M131.114 213.401C131.114 213.513 131.111 213.599 131.105 213.658H129.001C129.011 213.851 129.057 214.016 129.141 214.153C129.224 214.29 129.334 214.395 129.47 214.466C129.606 214.535 129.755 214.569 129.916 214.569C130.126 214.569 130.303 214.518 130.445 214.415C130.591 214.312 130.687 214.173 130.733 213.999H131.077C131.015 214.248 130.882 214.452 130.677 214.611C130.476 214.767 130.222 214.845 129.916 214.845C129.678 214.845 129.464 214.792 129.275 214.686C129.086 214.577 128.938 214.424 128.83 214.228C128.724 214.028 128.672 213.796 128.672 213.532C128.672 213.267 128.724 213.035 128.83 212.835C128.935 212.636 129.082 212.483 129.271 212.377C129.459 212.271 129.675 212.219 129.916 212.219C130.157 212.219 130.368 212.271 130.547 212.377C130.73 212.483 130.869 212.627 130.965 212.807C131.064 212.985 131.114 213.183 131.114 213.401ZM130.784 213.391C130.787 213.201 130.749 213.039 130.668 212.905C130.591 212.771 130.484 212.67 130.348 212.602C130.212 212.533 130.063 212.499 129.902 212.499C129.661 212.499 129.455 212.577 129.285 212.733C129.114 212.888 129.02 213.108 129.001 213.391H130.784Z" fill="#EEEAE7"/>
<path d="M132.033 212.709C132.105 212.55 132.213 212.427 132.358 212.34C132.507 212.253 132.688 212.209 132.902 212.209V212.55H132.813C132.578 212.55 132.389 212.614 132.247 212.742C132.105 212.87 132.033 213.083 132.033 213.382V214.807H131.708V212.256H132.033V212.709Z" fill="#EEEAE7"/>
<path d="M133.553 211.775C133.488 211.775 133.432 211.751 133.386 211.704C133.339 211.658 133.316 211.6 133.316 211.532C133.316 211.463 133.339 211.407 133.386 211.363C133.432 211.317 133.488 211.293 133.553 211.293C133.618 211.293 133.674 211.317 133.72 211.363C133.767 211.407 133.79 211.463 133.79 211.532C133.79 211.6 133.767 211.658 133.72 211.704C133.674 211.751 133.618 211.775 133.553 211.775ZM133.715 212.256V214.807H133.39V212.256H133.715Z" fill="#EEEAE7"/>
<path d="M135.45 212.532H134.86V214.807H134.535V212.532H134.182V212.256H134.535V212.078C134.535 211.801 134.605 211.597 134.744 211.466C134.886 211.335 135.115 211.27 135.431 211.27V211.55C135.221 211.55 135.072 211.591 134.985 211.672C134.902 211.753 134.86 211.888 134.86 212.078V212.256H135.45V212.532Z" fill="#EEEAE7"/>
<path d="M136.133 212.793C136.065 212.793 136.008 212.77 135.961 212.723C135.918 212.676 135.896 212.619 135.896 212.55C135.896 212.482 135.918 212.426 135.961 212.382C136.008 212.335 136.065 212.312 136.133 212.312C136.198 212.312 136.252 212.335 136.295 212.382C136.342 212.426 136.365 212.482 136.365 212.55C136.365 212.619 136.342 212.676 136.295 212.723C136.252 212.77 136.198 212.793 136.133 212.793ZM136.37 214.265L135.887 215.49H135.664L136.008 214.265H136.37Z" fill="#EEEAE7"/>
<path d="M82.7798 220.721C82.7798 220.456 82.8324 220.225 82.9376 220.029C83.0429 219.83 83.1883 219.677 83.374 219.571C83.5598 219.462 83.7718 219.408 84.0101 219.408C84.3227 219.408 84.5796 219.486 84.7808 219.641C84.9851 219.797 85.1166 220.009 85.1754 220.277H84.8272C84.7839 220.093 84.6895 219.95 84.544 219.847C84.4016 219.741 84.2237 219.688 84.0101 219.688C83.8399 219.688 83.6867 219.727 83.5505 219.805C83.4143 219.883 83.306 220 83.2255 220.155C83.1481 220.308 83.1094 220.496 83.1094 220.721C83.1094 220.945 83.1481 221.135 83.2255 221.291C83.306 221.447 83.4143 221.563 83.5505 221.641C83.6867 221.719 83.8399 221.758 84.0101 221.758C84.2237 221.758 84.4016 221.707 84.544 221.604C84.6895 221.498 84.7839 221.352 84.8272 221.165H85.1754C85.1166 221.426 84.9851 221.637 84.7808 221.796C84.5765 221.954 84.3196 222.034 84.0101 222.034C83.7718 222.034 83.5598 221.981 83.374 221.875C83.1883 221.766 83.0429 221.613 82.9376 221.417C82.8324 221.218 82.7798 220.986 82.7798 220.721Z" fill="#EEEAE7"/>
<path d="M86.8852 222.034C86.6469 222.034 86.4318 221.981 86.2399 221.875C86.0511 221.766 85.901 221.613 85.7896 221.417C85.6812 221.218 85.6271 220.986 85.6271 220.721C85.6271 220.456 85.6828 220.225 85.7942 220.029C85.9056 219.83 86.0573 219.677 86.2492 219.571C86.4411 219.462 86.6562 219.408 86.8945 219.408C87.1328 219.408 87.348 219.462 87.5398 219.571C87.7348 219.677 87.8865 219.83 87.9948 220.029C88.1063 220.225 88.162 220.456 88.162 220.721C88.162 220.982 88.1063 221.213 87.9948 221.412C87.8834 221.612 87.7302 221.766 87.5352 221.875C87.3402 221.981 87.1236 222.034 86.8852 222.034ZM86.8852 221.749C87.0524 221.749 87.2071 221.711 87.3495 221.637C87.4919 221.559 87.6064 221.443 87.6931 221.291C87.7828 221.135 87.8277 220.945 87.8277 220.721C87.8277 220.496 87.7844 220.308 87.6977 220.155C87.611 220 87.4965 219.884 87.3541 219.81C87.2118 219.732 87.057 219.693 86.8899 219.693C86.7227 219.693 86.568 219.732 86.4256 219.81C86.2832 219.884 86.1687 220 86.082 220.155C85.9985 220.308 85.9567 220.496 85.9567 220.721C85.9567 220.945 85.9985 221.135 86.082 221.291C86.1687 221.443 86.2817 221.559 86.421 221.637C86.5633 221.711 86.7181 221.749 86.8852 221.749Z" fill="#EEEAE7"/>
<path d="M89.0794 218.538V221.996H88.7544V218.538H89.0794Z" fill="#EEEAE7"/>
<path d="M90.9249 222.034C90.6866 222.034 90.4715 221.981 90.2796 221.875C90.0908 221.766 89.9407 221.613 89.8292 221.417C89.7209 221.218 89.6667 220.986 89.6667 220.721C89.6667 220.456 89.7225 220.225 89.8339 220.029C89.9453 219.83 90.097 219.677 90.2889 219.571C90.4808 219.462 90.6959 219.408 90.9342 219.408C91.1725 219.408 91.3876 219.462 91.5795 219.571C91.7745 219.677 91.9262 219.83 92.0345 220.029C92.1459 220.225 92.2017 220.456 92.2017 220.721C92.2017 220.982 92.1459 221.213 92.0345 221.412C91.9231 221.612 91.7699 221.766 91.5749 221.875C91.3799 221.981 91.1632 222.034 90.9249 222.034ZM90.9249 221.749C91.0921 221.749 91.2468 221.711 91.3892 221.637C91.5316 221.559 91.6461 221.443 91.7327 221.291C91.8225 221.135 91.8674 220.945 91.8674 220.721C91.8674 220.496 91.8241 220.308 91.7374 220.155C91.6507 220 91.5362 219.884 91.3938 219.81C91.2515 219.732 91.0967 219.693 90.9296 219.693C90.7624 219.693 90.6077 219.732 90.4653 219.81C90.3229 219.884 90.2084 220 90.1217 220.155C90.0382 220.308 89.9964 220.496 89.9964 220.721C89.9964 220.945 90.0382 221.135 90.1217 221.291C90.2084 221.443 90.3214 221.559 90.4606 221.637C90.603 221.711 90.7578 221.749 90.9249 221.749Z" fill="#EEEAE7"/>
<path d="M93.1191 219.898C93.1903 219.739 93.2986 219.616 93.4441 219.529C93.5926 219.442 93.7737 219.398 93.9872 219.398V219.739H93.899C93.6638 219.739 93.475 219.803 93.3326 219.931C93.1903 220.059 93.1191 220.272 93.1191 220.571V221.996H92.7941V219.445H93.1191V219.898Z" fill="#EEEAE7"/>
<path d="M94.5319 222.02C94.4638 222.02 94.4065 221.996 94.3601 221.95C94.3167 221.903 94.2951 221.845 94.2951 221.777C94.2951 221.708 94.3167 221.652 94.3601 221.609C94.4065 221.562 94.4638 221.538 94.5319 221.538C94.5969 221.538 94.651 221.562 94.6944 221.609C94.7408 221.652 94.764 221.708 94.764 221.777C94.764 221.845 94.7408 221.903 94.6944 221.95C94.651 221.996 94.5969 222.02 94.5319 222.02ZM94.5319 219.987C94.4638 219.987 94.4065 219.964 94.3601 219.917C94.3167 219.87 94.2951 219.813 94.2951 219.744C94.2951 219.676 94.3167 219.619 94.3601 219.576C94.4065 219.529 94.4638 219.506 94.5319 219.506C94.5969 219.506 94.651 219.529 94.6944 219.576C94.7408 219.619 94.764 219.676 94.764 219.744C94.764 219.813 94.7408 219.87 94.6944 219.917C94.651 219.964 94.5969 219.987 94.5319 219.987Z" fill="#EEEAE7"/>
<path d="M99.0306 219.842L98.8495 220.707H99.5134V220.996H98.7891L98.5756 221.996H98.2645L98.4781 220.996H97.4474L97.2338 221.996H96.9228L97.1363 220.996H96.3981V220.707H97.1967L97.3778 219.842H96.6535V219.552H97.4428L97.6563 218.538H97.9674L97.7538 219.552H98.7845L98.9981 218.538H99.3091L99.0956 219.552H99.7687V219.842H99.0306ZM98.7195 219.842H97.6888L97.5078 220.707H98.5384L98.7195 219.842Z" fill="#EEEAE7"/>
<path d="M100.291 219.501C100.313 219.218 100.421 218.995 100.616 218.833C100.814 218.668 101.07 218.585 101.382 218.585C101.59 218.585 101.768 218.623 101.916 218.697C102.065 218.772 102.176 218.875 102.25 219.006C102.328 219.133 102.366 219.278 102.366 219.44C102.366 219.637 102.309 219.806 102.195 219.95C102.08 220.093 101.918 220.182 101.707 220.216V220.239C101.927 220.283 102.102 220.38 102.232 220.529C102.362 220.676 102.427 220.869 102.427 221.109C102.427 221.376 102.337 221.596 102.158 221.767C101.981 221.936 101.724 222.02 101.387 222.02C101.065 222.02 100.8 221.936 100.593 221.767C100.386 221.596 100.266 221.355 100.235 221.043H100.551C100.579 221.252 100.666 221.422 100.811 221.553C100.957 221.68 101.149 221.744 101.387 221.744C101.622 221.744 101.802 221.682 101.925 221.557C102.052 221.433 102.116 221.274 102.116 221.081C102.116 220.607 101.777 220.37 101.099 220.37H100.997V220.095H101.104C101.735 220.095 102.051 219.887 102.051 219.473C102.051 219.292 101.992 219.148 101.874 219.038C101.757 218.926 101.59 218.87 101.373 218.87C101.162 218.87 100.988 218.926 100.848 219.038C100.712 219.148 100.632 219.302 100.607 219.501H100.291Z" fill="#EEEAE7"/>
<path d="M103.007 219.501C103.029 219.218 103.137 218.995 103.332 218.833C103.53 218.668 103.785 218.585 104.098 218.585C104.305 218.585 104.483 218.623 104.632 218.697C104.78 218.772 104.892 218.875 104.966 219.006C105.044 219.133 105.082 219.278 105.082 219.44C105.082 219.637 105.025 219.806 104.91 219.95C104.796 220.093 104.633 220.182 104.423 220.216V220.239C104.643 220.283 104.818 220.38 104.948 220.529C105.078 220.676 105.143 220.869 105.143 221.109C105.143 221.376 105.053 221.596 104.873 221.767C104.697 221.936 104.44 222.02 104.103 222.02C103.781 222.02 103.516 221.936 103.309 221.767C103.101 221.596 102.982 221.355 102.951 221.043H103.267C103.295 221.252 103.381 221.422 103.527 221.553C103.672 221.68 103.864 221.744 104.103 221.744C104.338 221.744 104.517 221.682 104.641 221.557C104.768 221.433 104.832 221.274 104.832 221.081C104.832 220.607 104.493 220.37 103.815 220.37H103.713V220.095H103.819C104.451 220.095 104.767 219.887 104.767 219.473C104.767 219.292 104.708 219.148 104.59 219.038C104.472 218.926 104.305 218.87 104.089 218.87C103.878 218.87 103.703 218.926 103.564 219.038C103.428 219.148 103.347 219.302 103.323 219.501H103.007Z" fill="#EEEAE7"/>
<path d="M105.723 219.501C105.744 219.218 105.853 218.995 106.048 218.833C106.246 218.668 106.501 218.585 106.814 218.585C107.021 218.585 107.199 218.623 107.348 218.697C107.496 218.772 107.608 218.875 107.682 219.006C107.759 219.133 107.798 219.278 107.798 219.44C107.798 219.637 107.741 219.806 107.626 219.95C107.512 220.093 107.349 220.182 107.139 220.216V220.239C107.359 220.283 107.533 220.38 107.663 220.529C107.793 220.676 107.858 220.869 107.858 221.109C107.858 221.376 107.769 221.596 107.589 221.767C107.413 221.936 107.156 222.02 106.818 222.02C106.497 222.02 106.232 221.936 106.025 221.767C105.817 221.596 105.698 221.355 105.667 221.043H105.983C106.011 221.252 106.097 221.422 106.243 221.553C106.388 221.68 106.58 221.744 106.818 221.744C107.054 221.744 107.233 221.682 107.357 221.557C107.484 221.433 107.547 221.274 107.547 221.081C107.547 220.607 107.208 220.37 106.531 220.37H106.428V220.095H106.535C107.167 220.095 107.482 219.887 107.482 219.473C107.482 219.292 107.424 219.148 107.306 219.038C107.188 218.926 107.021 218.87 106.804 218.87C106.594 218.87 106.419 218.926 106.28 219.038C106.144 219.148 106.063 219.302 106.038 219.501H105.723Z" fill="#EEEAE7"/>
<path d="M108.694 219.982C108.626 219.982 108.569 219.959 108.522 219.912C108.479 219.866 108.457 219.808 108.457 219.739C108.457 219.671 108.479 219.615 108.522 219.571C108.569 219.524 108.626 219.501 108.694 219.501C108.759 219.501 108.813 219.524 108.856 219.571C108.903 219.615 108.926 219.671 108.926 219.739C108.926 219.808 108.903 219.866 108.856 219.912C108.813 219.959 108.759 219.982 108.694 219.982ZM108.931 221.454L108.448 222.679H108.225L108.569 221.454H108.931Z" fill="#EEEAE7"/>
<path d="M83.9265 226.91H83.3369V229.186H83.0119V226.91H82.6591V226.634H83.0119V226.457C83.0119 226.179 83.0816 225.975 83.2208 225.844C83.3632 225.714 83.5923 225.648 83.908 225.648V225.929C83.6975 225.929 83.5489 225.969 83.4623 226.05C83.3787 226.131 83.3369 226.267 83.3369 226.457V226.634H83.9265V226.91Z" fill="#EEEAE7"/>
<path d="M85.5477 229.223C85.3094 229.223 85.0943 229.17 84.9024 229.064C84.7136 228.955 84.5635 228.802 84.4521 228.606C84.3437 228.407 84.2896 228.175 84.2896 227.91C84.2896 227.645 84.3453 227.415 84.4567 227.218C84.5681 227.019 84.7198 226.866 84.9117 226.76C85.1036 226.651 85.3187 226.597 85.557 226.597C85.7953 226.597 86.0105 226.651 86.2024 226.76C86.3973 226.866 86.549 227.019 86.6573 227.218C86.7688 227.415 86.8245 227.645 86.8245 227.91C86.8245 228.172 86.7688 228.402 86.6573 228.601C86.5459 228.801 86.3927 228.955 86.1977 229.064C86.0027 229.17 85.7861 229.223 85.5477 229.223ZM85.5477 228.938C85.7149 228.938 85.8696 228.901 86.012 228.826C86.1544 228.748 86.2689 228.633 86.3556 228.48C86.4453 228.324 86.4902 228.134 86.4902 227.91C86.4902 227.686 86.4469 227.497 86.3602 227.344C86.2735 227.189 86.159 227.073 86.0166 226.999C85.8743 226.921 85.7195 226.882 85.5524 226.882C85.3852 226.882 85.2305 226.921 85.0881 226.999C84.9457 227.073 84.8312 227.189 84.7445 227.344C84.661 227.497 84.6192 227.686 84.6192 227.91C84.6192 228.134 84.661 228.324 84.7445 228.48C84.8312 228.633 84.9442 228.748 85.0835 228.826C85.2258 228.901 85.3806 228.938 85.5477 228.938Z" fill="#EEEAE7"/>
<path d="M88.6054 226.587C88.9087 226.587 89.1564 226.682 89.3483 226.872C89.5401 227.059 89.6361 227.332 89.6361 227.69V229.186H89.3158V227.728C89.3158 227.45 89.2461 227.239 89.1068 227.092C88.9706 226.946 88.7834 226.872 88.5451 226.872C88.3005 226.872 88.1056 226.95 87.9601 227.106C87.8146 227.262 87.7419 227.491 87.7419 227.793V229.186H87.4169V226.634H87.7419V227.069C87.8224 226.913 87.9384 226.795 88.0901 226.714C88.2417 226.629 88.4135 226.587 88.6054 226.587Z" fill="#EEEAE7"/>
<path d="M90.7773 226.91V228.494C90.7773 228.65 90.8067 228.757 90.8655 228.816C90.9243 228.876 91.028 228.905 91.1766 228.905H91.4737V229.186H91.1255C90.8965 229.186 90.7263 229.133 90.6148 229.027C90.5034 228.918 90.4477 228.74 90.4477 228.494V226.91H90.0949V226.634H90.4477V225.994H90.7773V226.634H91.4737V226.91H90.7773Z" fill="#EEEAE7"/>
<path d="M93.5836 227.316V227.592H91.7776V227.316H93.5836Z" fill="#EEEAE7"/>
<path d="M95.29 229.223C94.9991 229.223 94.7608 229.156 94.5751 229.022C94.3924 228.885 94.2903 228.7 94.2686 228.466H94.6029C94.6184 228.609 94.6849 228.726 94.8025 228.816C94.9233 228.904 95.0842 228.947 95.2854 228.947C95.4618 228.947 95.5995 228.905 95.6986 228.821C95.8007 228.737 95.8518 228.633 95.8518 228.508C95.8518 228.421 95.8239 228.349 95.7682 228.293C95.7125 228.237 95.6413 228.193 95.5547 228.162C95.4711 228.128 95.3566 228.092 95.2111 228.055C95.0223 228.005 94.8691 227.955 94.7515 227.905C94.6339 227.855 94.5333 227.782 94.4497 227.686C94.3692 227.586 94.329 227.453 94.329 227.288C94.329 227.164 94.3661 227.048 94.4404 226.943C94.5147 226.837 94.6199 226.753 94.7561 226.69C94.8923 226.628 95.0471 226.597 95.2204 226.597C95.4928 226.597 95.7125 226.667 95.8797 226.807C96.0468 226.944 96.1365 227.134 96.1489 227.377H95.8239C95.8147 227.228 95.7558 227.108 95.6475 227.017C95.5423 226.924 95.3968 226.877 95.2111 226.877C95.0471 226.877 94.914 226.916 94.8118 226.994C94.7097 227.072 94.6586 227.168 94.6586 227.284C94.6586 227.383 94.688 227.466 94.7468 227.531C94.8087 227.594 94.8846 227.644 94.9743 227.681C95.0641 227.715 95.1848 227.754 95.3365 227.798C95.5191 227.848 95.6645 227.896 95.7729 227.943C95.8812 227.989 95.9741 228.058 96.0514 228.148C96.1288 228.239 96.169 228.358 96.1721 228.508C96.1721 228.645 96.135 228.768 96.0607 228.877C95.9864 228.983 95.8827 229.067 95.7497 229.129C95.6166 229.192 95.4634 229.223 95.29 229.223Z" fill="#EEEAE7"/>
<path d="M96.9464 226.153C96.8814 226.153 96.8257 226.129 96.7792 226.083C96.7328 226.036 96.7096 225.978 96.7096 225.91C96.7096 225.841 96.7328 225.785 96.7792 225.742C96.8257 225.695 96.8814 225.672 96.9464 225.672C97.0114 225.672 97.0671 225.695 97.1135 225.742C97.1599 225.785 97.1832 225.841 97.1832 225.91C97.1832 225.978 97.1599 226.036 97.1135 226.083C97.0671 226.129 97.0114 226.153 96.9464 226.153ZM97.1089 226.634V229.186H96.7839V226.634H97.1089Z" fill="#EEEAE7"/>
<path d="M98.0166 228.915H99.3444V229.186H97.6452V228.915L98.9498 226.905H97.6684V226.634H99.3212V226.905L98.0166 228.915Z" fill="#EEEAE7"/>
<path d="M102.188 227.779C102.188 227.891 102.185 227.977 102.178 228.036H100.075C100.084 228.229 100.131 228.394 100.214 228.531C100.298 228.668 100.408 228.773 100.544 228.844C100.68 228.913 100.829 228.947 100.99 228.947C101.2 228.947 101.377 228.896 101.519 228.793C101.665 228.69 101.76 228.552 101.807 228.377H102.15C102.089 228.626 101.955 228.83 101.751 228.989C101.55 229.145 101.296 229.223 100.99 229.223C100.751 229.223 100.538 229.17 100.349 229.064C100.16 228.955 100.012 228.802 99.9034 228.606C99.7982 228.407 99.7456 228.175 99.7456 227.91C99.7456 227.645 99.7982 227.413 99.9034 227.214C100.009 227.014 100.156 226.862 100.344 226.756C100.533 226.65 100.748 226.597 100.99 226.597C101.231 226.597 101.442 226.65 101.621 226.756C101.804 226.862 101.943 227.005 102.039 227.186C102.138 227.363 102.188 227.561 102.188 227.779ZM101.858 227.77C101.861 227.58 101.822 227.418 101.742 227.284C101.665 227.15 101.558 227.048 101.422 226.98C101.285 226.911 101.137 226.877 100.976 226.877C100.734 226.877 100.529 226.955 100.358 227.111C100.188 227.267 100.094 227.486 100.075 227.77H101.858Z" fill="#EEEAE7"/>
<path d="M102.838 229.209C102.77 229.209 102.713 229.186 102.666 229.139C102.623 229.092 102.601 229.034 102.601 228.966C102.601 228.897 102.623 228.841 102.666 228.798C102.713 228.751 102.77 228.728 102.838 228.728C102.903 228.728 102.957 228.751 103 228.798C103.047 228.841 103.07 228.897 103.07 228.966C103.07 229.034 103.047 229.092 103 229.139C102.957 229.186 102.903 229.209 102.838 229.209ZM102.838 227.176C102.77 227.176 102.713 227.153 102.666 227.106C102.623 227.059 102.601 227.002 102.601 226.933C102.601 226.865 102.623 226.809 102.666 226.765C102.713 226.718 102.77 226.695 102.838 226.695C102.903 226.695 102.957 226.718 103 226.765C103.047 226.809 103.07 226.865 103.07 226.933C103.07 227.002 103.047 227.059 103 227.106C102.957 227.153 102.903 227.176 102.838 227.176Z" fill="#EEEAE7"/>
<path d="M104.686 226.129V225.835H105.475V229.186H105.145V226.129H104.686Z" fill="#EEEAE7"/>
<path d="M106.055 228.391V228.144L107.745 225.854H108.13V228.106H108.627V228.391H108.13V229.186H107.81V228.391H106.055ZM107.824 226.214L106.431 228.106H107.824V226.214Z" fill="#EEEAE7"/>
<path d="M109.436 227.195C109.517 227.024 109.644 226.882 109.817 226.77C109.994 226.654 110.202 226.597 110.444 226.597C110.673 226.597 110.879 226.651 111.061 226.76C111.247 226.866 111.391 227.019 111.493 227.218C111.598 227.415 111.651 227.644 111.651 227.905C111.651 228.167 111.598 228.397 111.493 228.597C111.391 228.796 111.247 228.95 111.061 229.059C110.879 229.168 110.673 229.223 110.444 229.223C110.206 229.223 109.998 229.167 109.822 229.055C109.645 228.939 109.517 228.796 109.436 228.625V230.391H109.116V226.634H109.436V227.195ZM111.321 227.905C111.321 227.693 111.28 227.511 111.196 227.358C111.115 227.203 111.004 227.084 110.862 227.003C110.719 226.922 110.558 226.882 110.379 226.882C110.206 226.882 110.046 226.924 109.901 227.008C109.758 227.092 109.645 227.212 109.562 227.368C109.478 227.524 109.436 227.704 109.436 227.91C109.436 228.115 109.478 228.296 109.562 228.452C109.645 228.608 109.758 228.728 109.901 228.812C110.046 228.896 110.206 228.938 110.379 228.938C110.558 228.938 110.719 228.897 110.862 228.816C111.004 228.732 111.115 228.612 111.196 228.457C111.28 228.298 111.321 228.114 111.321 227.905Z" fill="#EEEAE7"/>
<path d="M113.577 229.186L112.922 228.158L112.291 229.186H111.947L112.764 227.91L111.956 226.634H112.323L112.969 227.648L113.595 226.634H113.934L113.126 227.896L113.944 229.186H113.577Z" fill="#EEEAE7"/>
<path d="M114.556 227.172C114.488 227.172 114.431 227.148 114.384 227.101C114.341 227.055 114.319 226.997 114.319 226.929C114.319 226.86 114.341 226.804 114.384 226.76C114.431 226.714 114.488 226.69 114.556 226.69C114.621 226.69 114.675 226.714 114.719 226.76C114.765 226.804 114.788 226.86 114.788 226.929C114.788 226.997 114.765 227.055 114.719 227.101C114.675 227.148 114.621 227.172 114.556 227.172ZM114.793 228.644L114.31 229.868H114.087L114.431 228.644H114.793Z" fill="#EEEAE7"/>
<path d="M83.2533 232.917V236.375H82.9283V232.917H83.2533Z" fill="#EEEAE7"/>
<path d="M84.1518 233.342C84.0868 233.342 84.0311 233.319 83.9846 233.272C83.9382 233.225 83.915 233.168 83.915 233.099C83.915 233.03 83.9382 232.974 83.9846 232.931C84.0311 232.884 84.0868 232.861 84.1518 232.861C84.2168 232.861 84.2725 232.884 84.3189 232.931C84.3653 232.974 84.3885 233.03 84.3885 233.099C84.3885 233.168 84.3653 233.225 84.3189 233.272C84.2725 233.319 84.2168 233.342 84.1518 233.342ZM84.3143 233.823V236.375H83.9893V233.823H84.3143Z" fill="#EEEAE7"/>
<path d="M86.2387 233.777C86.5421 233.777 86.7897 233.872 86.9816 234.062C87.1735 234.249 87.2694 234.521 87.2694 234.879V236.375H86.9491V234.917C86.9491 234.639 86.8794 234.428 86.7401 234.281C86.604 234.135 86.4167 234.062 86.1784 234.062C85.9339 234.062 85.7389 234.139 85.5934 234.295C85.4479 234.451 85.3752 234.68 85.3752 234.982V236.375H85.0502V233.823H85.3752V234.258C85.4557 234.102 85.5717 233.984 85.7234 233.903C85.8751 233.819 86.0468 233.777 86.2387 233.777Z" fill="#EEEAE7"/>
<path d="M90.2817 234.968C90.2817 235.08 90.2786 235.166 90.2724 235.225H88.1692C88.1785 235.418 88.2249 235.583 88.3085 235.72C88.3921 235.858 88.502 235.962 88.6381 236.034C88.7743 236.102 88.9229 236.136 89.0838 236.136C89.2943 236.136 89.4707 236.085 89.6131 235.982C89.7586 235.879 89.8545 235.741 89.9009 235.566H90.2445C90.1826 235.816 90.0495 236.02 89.8452 236.178C89.6441 236.334 89.3903 236.412 89.0838 236.412C88.8455 236.412 88.6319 236.359 88.4431 236.253C88.2543 236.144 88.1058 235.992 87.9974 235.795C87.8922 235.596 87.8396 235.364 87.8396 235.099C87.8396 234.834 87.8922 234.602 87.9974 234.403C88.1027 234.203 88.2497 234.051 88.4385 233.945C88.6273 233.839 88.8424 233.786 89.0838 233.786C89.3253 233.786 89.5357 233.839 89.7152 233.945C89.8979 234.051 90.0371 234.194 90.1331 234.375C90.2321 234.552 90.2817 234.75 90.2817 234.968ZM89.952 234.959C89.9551 234.769 89.9164 234.607 89.836 234.473C89.7586 234.339 89.6518 234.238 89.5156 234.169C89.3794 234.101 89.2309 234.066 89.0699 234.066C88.8285 234.066 88.6227 234.144 88.4524 234.3C88.2822 234.456 88.1878 234.675 88.1692 234.959H89.952Z" fill="#EEEAE7"/>
<path d="M92.4501 234.506V234.781H90.6441V234.506H92.4501Z" fill="#EEEAE7"/>
<path d="M94.4908 233.777C94.6827 233.777 94.8545 233.817 95.0062 233.898C95.1609 233.979 95.2816 234.104 95.3683 234.272C95.4581 234.437 95.5029 234.639 95.5029 234.879V236.375H95.1826V234.917C95.1826 234.639 95.113 234.428 94.9737 234.281C94.8375 234.135 94.6502 234.062 94.4119 234.062C94.1674 234.062 93.9724 234.139 93.8269 234.295C93.6815 234.451 93.6087 234.68 93.6087 234.982V236.375H93.2837V232.917H93.6087V234.258C93.6892 234.105 93.8068 233.987 93.9616 233.903C94.1194 233.819 94.2958 233.777 94.4908 233.777Z" fill="#EEEAE7"/>
<path d="M98.5152 234.968C98.5152 235.08 98.5121 235.166 98.5059 235.225H96.4028C96.412 235.418 96.4585 235.583 96.542 235.72C96.6256 235.858 96.7355 235.962 96.8717 236.034C97.0079 236.102 97.1564 236.136 97.3174 236.136C97.5278 236.136 97.7043 236.085 97.8466 235.982C97.9921 235.879 98.0881 235.741 98.1345 235.566H98.478C98.4161 235.816 98.283 236.02 98.0788 236.178C97.8776 236.334 97.6238 236.412 97.3174 236.412C97.079 236.412 96.8655 236.359 96.6767 236.253C96.4879 236.144 96.3393 235.992 96.231 235.795C96.1257 235.596 96.0731 235.364 96.0731 235.099C96.0731 234.834 96.1257 234.602 96.231 234.403C96.3362 234.203 96.4832 234.051 96.672 233.945C96.8608 233.839 97.0759 233.786 97.3174 233.786C97.5588 233.786 97.7693 233.839 97.9488 233.945C98.1314 234.051 98.2707 234.194 98.3666 234.375C98.4657 234.552 98.5152 234.75 98.5152 234.968ZM98.1855 234.959C98.1886 234.769 98.15 234.607 98.0695 234.473C97.9921 234.339 97.8853 234.238 97.7491 234.169C97.6129 234.101 97.4644 234.066 97.3034 234.066C97.062 234.066 96.8562 234.144 96.686 234.3C96.5157 234.456 96.4213 234.675 96.4028 234.959H98.1855Z" fill="#EEEAE7"/>
<path d="M99.2723 233.342C99.2073 233.342 99.1516 233.319 99.1051 233.272C99.0587 233.225 99.0355 233.168 99.0355 233.099C99.0355 233.03 99.0587 232.974 99.1051 232.931C99.1516 232.884 99.2073 232.861 99.2723 232.861C99.3373 232.861 99.393 232.884 99.4394 232.931C99.4858 232.974 99.509 233.03 99.509 233.099C99.509 233.168 99.4858 233.225 99.4394 233.272C99.393 233.319 99.3373 233.342 99.2723 233.342ZM99.4348 233.823V236.375H99.1098V233.823H99.4348Z" fill="#EEEAE7"/>
<path d="M101.234 233.786C101.472 233.786 101.68 233.842 101.856 233.954C102.032 234.066 102.159 234.208 102.237 234.379V233.823H102.562V236.44C102.562 236.674 102.511 236.881 102.408 237.062C102.309 237.242 102.17 237.381 101.991 237.478C101.811 237.577 101.607 237.627 101.378 237.627C101.053 237.627 100.782 237.549 100.565 237.393C100.352 237.238 100.219 237.026 100.166 236.758H100.486C100.542 236.935 100.647 237.077 100.802 237.183C100.96 237.289 101.152 237.342 101.378 237.342C101.542 237.342 101.689 237.306 101.819 237.235C101.949 237.166 102.051 237.063 102.125 236.926C102.2 236.789 102.237 236.627 102.237 236.44V235.809C102.156 235.984 102.028 236.129 101.851 236.244C101.678 236.356 101.472 236.412 101.234 236.412C101.002 236.412 100.793 236.358 100.607 236.249C100.424 236.139 100.281 235.985 100.175 235.786C100.073 235.587 100.022 235.356 100.022 235.094C100.022 234.833 100.073 234.604 100.175 234.407C100.281 234.208 100.424 234.055 100.607 233.949C100.793 233.84 101.002 233.786 101.234 233.786ZM102.237 235.099C102.237 234.893 102.195 234.713 102.111 234.557C102.028 234.401 101.913 234.281 101.768 234.197C101.625 234.113 101.468 234.071 101.294 234.071C101.115 234.071 100.954 234.111 100.811 234.192C100.669 234.273 100.556 234.392 100.472 234.548C100.392 234.7 100.352 234.882 100.352 235.094C100.352 235.303 100.392 235.487 100.472 235.646C100.556 235.801 100.669 235.921 100.811 236.006C100.954 236.087 101.115 236.127 101.294 236.127C101.468 236.127 101.625 236.085 101.768 236.001C101.913 235.917 102.028 235.797 102.111 235.641C102.195 235.485 102.237 235.305 102.237 235.099Z" fill="#EEEAE7"/>
<path d="M104.511 233.777C104.703 233.777 104.874 233.817 105.026 233.898C105.181 233.979 105.302 234.104 105.388 234.272C105.478 234.437 105.523 234.639 105.523 234.879V236.375H105.202V234.917C105.202 234.639 105.133 234.428 104.994 234.281C104.857 234.135 104.67 234.062 104.432 234.062C104.187 234.062 103.992 234.139 103.847 234.295C103.701 234.451 103.629 234.68 103.629 234.982V236.375H103.304V232.917H103.629V234.258C103.709 234.105 103.827 233.987 103.981 233.903C104.139 233.819 104.316 233.777 104.511 233.777Z" fill="#EEEAE7"/>
<path d="M106.664 234.099V235.683C106.664 235.839 106.693 235.946 106.752 236.006C106.811 236.065 106.915 236.094 107.063 236.094H107.36V236.375H107.012C106.783 236.375 106.613 236.322 106.502 236.216C106.39 236.107 106.334 235.929 106.334 235.683V234.099H105.982V233.823H106.334V233.183H106.664V233.823H107.36V234.099H106.664Z" fill="#EEEAE7"/>
<path d="M107.952 236.398C107.884 236.398 107.827 236.375 107.78 236.328C107.737 236.281 107.715 236.224 107.715 236.155C107.715 236.087 107.737 236.03 107.78 235.987C107.827 235.94 107.884 235.917 107.952 235.917C108.017 235.917 108.071 235.94 108.115 235.987C108.161 236.03 108.184 236.087 108.184 236.155C108.184 236.224 108.161 236.281 108.115 236.328C108.071 236.375 108.017 236.398 107.952 236.398ZM107.952 234.365C107.884 234.365 107.827 234.342 107.78 234.295C107.737 234.249 107.715 234.191 107.715 234.122C107.715 234.054 107.737 233.998 107.78 233.954C107.827 233.907 107.884 233.884 107.952 233.884C108.017 233.884 108.071 233.907 108.115 233.954C108.161 233.998 108.184 234.054 108.184 234.122C108.184 234.191 108.161 234.249 108.115 234.295C108.071 234.342 108.017 234.365 107.952 234.365Z" fill="#EEEAE7"/>
<path d="M109.893 236.118C110.462 235.688 110.902 235.303 111.211 234.963C111.524 234.621 111.68 234.286 111.68 233.959C111.68 233.744 111.626 233.572 111.518 233.445C111.412 233.314 111.239 233.249 110.998 233.249C110.762 233.249 110.58 233.323 110.45 233.473C110.323 233.619 110.252 233.815 110.236 234.062H109.921C109.939 233.716 110.044 233.448 110.236 233.258C110.431 233.065 110.685 232.968 110.998 232.968C111.298 232.968 111.541 233.054 111.727 233.225C111.912 233.393 112.005 233.633 112.005 233.945C112.005 234.322 111.849 234.688 111.536 235.043C111.227 235.395 110.844 235.739 110.389 236.076H112.107V236.351H109.893V236.118Z" fill="#EEEAE7"/>
<path d="M112.615 234.669C112.615 234.133 112.697 233.717 112.861 233.421C113.025 233.125 113.319 232.977 113.743 232.977C114.167 232.977 114.461 233.125 114.625 233.421C114.789 233.717 114.871 234.133 114.871 234.669C114.871 235.214 114.789 235.636 114.625 235.935C114.461 236.235 114.167 236.384 113.743 236.384C113.316 236.384 113.02 236.235 112.856 235.935C112.695 235.636 112.615 235.214 112.615 234.669ZM114.551 234.669C114.551 234.379 114.53 234.135 114.49 233.935C114.45 233.736 114.371 233.576 114.253 233.454C114.136 233.333 113.966 233.272 113.743 233.272C113.52 233.272 113.35 233.333 113.232 233.454C113.114 233.576 113.036 233.736 112.995 233.935C112.955 234.135 112.935 234.379 112.935 234.669C112.935 234.968 112.955 235.219 112.995 235.421C113.036 235.621 113.114 235.781 113.232 235.903C113.35 236.024 113.52 236.085 113.743 236.085C113.966 236.085 114.136 236.024 114.253 235.903C114.371 235.781 114.45 235.621 114.49 235.421C114.53 235.219 114.551 234.968 114.551 234.669Z" fill="#EEEAE7"/>
<path d="M115.865 234.384C115.946 234.213 116.073 234.071 116.246 233.959C116.423 233.844 116.631 233.786 116.873 233.786C117.102 233.786 117.308 233.84 117.49 233.949C117.676 234.055 117.82 234.208 117.922 234.407C118.027 234.604 118.08 234.833 118.08 235.094C118.08 235.356 118.027 235.587 117.922 235.786C117.82 235.985 117.676 236.139 117.49 236.249C117.308 236.358 117.102 236.412 116.873 236.412C116.635 236.412 116.427 236.356 116.251 236.244C116.074 236.129 115.946 235.985 115.865 235.814V237.58H115.545V233.823H115.865V234.384ZM117.75 235.094C117.75 234.882 117.709 234.7 117.625 234.548C117.545 234.392 117.433 234.273 117.291 234.192C117.148 234.111 116.987 234.071 116.808 234.071C116.635 234.071 116.475 234.113 116.33 234.197C116.187 234.281 116.074 234.401 115.991 234.557C115.907 234.713 115.865 234.893 115.865 235.099C115.865 235.305 115.907 235.485 115.991 235.641C116.074 235.797 116.187 235.917 116.33 236.001C116.475 236.085 116.635 236.127 116.808 236.127C116.987 236.127 117.148 236.087 117.291 236.006C117.433 235.921 117.545 235.801 117.625 235.646C117.709 235.487 117.75 235.303 117.75 235.094Z" fill="#EEEAE7"/>
<path d="M120.006 236.375L119.351 235.347L118.72 236.375H118.376L119.193 235.099L118.386 233.823H118.752L119.398 234.837L120.024 233.823H120.363L119.555 235.085L120.373 236.375H120.006Z" fill="#EEEAE7"/>
<path d="M120.985 234.361C120.917 234.361 120.86 234.337 120.813 234.291C120.77 234.244 120.748 234.186 120.748 234.118C120.748 234.049 120.77 233.993 120.813 233.949C120.86 233.903 120.917 233.879 120.985 233.879C121.05 233.879 121.104 233.903 121.148 233.949C121.194 233.993 121.217 234.049 121.217 234.118C121.217 234.186 121.194 234.244 121.148 234.291C121.104 234.337 121.05 234.361 120.985 234.361ZM121.222 235.833L120.739 237.057H120.516L120.86 235.833H121.222Z" fill="#EEEAE7"/>
<rect x="69.5923" y="191.558" width="83.1037" height="56.225" stroke="#EEEAE7"/>
<rect x="68.3369" y="189.5" width="3.60269" height="3.5286" fill="#070707" stroke="#EEEAE7"/>
<rect x="150.767" y="189.912" width="3.60268" height="3.5286" fill="#070707" stroke="#EEEAE7"/>
<rect x="67.5" y="245.902" width="3.60269" height="3.52859" fill="#070707" stroke="#EEEAE7"/>
<rect x="150.767" y="245.902" width="3.60268" height="3.52859" fill="#070707" stroke="#EEEAE7"/>
<rect x="139.431" y="237.352" width="21.0696" height="27.1481" rx="9.5" fill="#EEEAE7" stroke="black"/>
<path d="M145.061 256.354V241.677L156.096 251.73L150.578 252.333L154.052 259.37L151.805 260.376L148.535 253.138L145.061 256.354Z" fill="black" stroke="black"/>
<defs>
<linearGradient id="paint0_linear_811_450" x1="183.179" y1="140.016" x2="92.5025" y2="189.91" gradientUnits="userSpaceOnUse">
<stop stop-color="#677BFF"/>
<stop offset="1" stop-color="#404DA1" stop-opacity="0"/>
</linearGradient>
</defs>
</svg>
