<svg width="320" height="235" viewBox="0 0 320 235" fill="none" xmlns="http://www.w3.org/2000/svg">
<path d="M163.951 45.66L207.871 158.88C209.671 163.44 211.711 166.5 213.991 168.06C216.271 169.5 218.371 170.28 220.291 170.4V174C217.891 173.76 214.951 173.64 211.471 173.64C207.991 173.52 204.511 173.46 201.031 173.46C196.351 173.46 191.971 173.52 187.891 173.64C183.811 173.64 180.511 173.76 177.991 174V170.4C184.111 170.16 188.011 169.14 189.691 167.34C191.371 165.42 191.011 161.4 188.611 155.28L155.131 65.82L158.011 63.48L126.691 144.84C124.771 149.64 123.631 153.72 123.271 157.08C122.911 160.32 123.211 162.9 124.171 164.82C125.251 166.74 126.991 168.12 129.391 168.96C131.911 169.8 135.031 170.28 138.751 170.4V174C135.391 173.76 131.851 173.64 128.131 173.64C124.531 173.52 121.171 173.46 118.051 173.46C115.051 173.46 112.471 173.52 110.311 173.64C108.271 173.64 106.351 173.76 104.551 174V170.4C106.951 169.8 109.411 168.42 111.931 166.26C114.451 163.98 116.731 160.14 118.771 154.74L161.071 45.66C161.551 45.66 162.031 45.66 162.511 45.66C162.991 45.66 163.471 45.66 163.951 45.66ZM185.911 122.16V125.76H132.271L134.071 122.16H185.911Z" fill="white"/>
<path fill-rule="evenodd" clip-rule="evenodd" d="M164.635 44.66L208.801 158.513C208.801 158.514 208.802 158.515 208.802 158.516C210.574 163.003 212.516 165.832 214.541 167.224C216.726 168.602 218.659 169.296 220.353 169.402L221.291 169.461V175.105L220.191 174.995C217.835 174.759 214.931 174.64 211.471 174.64H211.454L211.436 174.639C207.968 174.52 204.499 174.46 201.031 174.46C196.359 174.46 191.989 174.52 187.92 174.64L187.905 174.64H187.891C183.826 174.64 180.561 174.76 178.086 174.995L176.991 175.1V169.438L177.952 169.401C180.973 169.282 183.399 168.972 185.253 168.488C187.114 168.001 188.293 167.364 188.948 166.67C189.521 166.006 189.853 164.855 189.685 162.974C189.517 161.099 188.864 158.665 187.68 155.645L187.677 155.638L176.87 126.76H134.722L127.619 145.211C125.717 149.966 124.612 153.952 124.265 157.187L124.265 157.19C123.917 160.318 124.223 162.673 125.054 164.351C125.997 166.014 127.519 167.244 129.714 168.014C132.113 168.812 135.128 169.283 138.783 169.4L139.751 169.432V175.074L138.68 174.997C135.346 174.759 131.829 174.64 128.131 174.64H128.114L128.097 174.639C124.507 174.52 121.158 174.46 118.051 174.46C115.063 174.46 112.502 174.52 110.366 174.638L110.339 174.64H110.311C108.31 174.64 106.434 174.758 104.683 174.991L103.551 175.142V169.619L104.308 169.43C106.512 168.879 108.833 167.596 111.27 165.51C113.613 163.385 115.82 159.721 117.835 154.387L117.838 154.378L160.386 44.66H164.635ZM111.931 166.26C109.411 168.42 106.951 169.8 104.551 170.4V174C104.88 173.956 105.213 173.916 105.551 173.88C107.057 173.72 108.644 173.64 110.311 173.64C112.471 173.52 115.051 173.46 118.051 173.46C121.171 173.46 124.531 173.52 128.131 173.64C131.484 173.64 134.69 173.737 137.751 173.932C138.086 173.954 138.419 173.976 138.751 174V170.4C135.031 170.28 131.911 169.8 129.391 168.96C126.991 168.12 125.251 166.74 124.171 164.82C123.211 162.9 122.911 160.32 123.271 157.08C123.631 153.72 124.771 149.64 126.691 144.84L134.036 125.76H177.563L188.611 155.28C191.011 161.4 191.371 165.42 189.691 167.34C188.011 169.14 184.111 170.16 177.991 170.4V174C178.311 173.969 178.645 173.941 178.991 173.914C181.363 173.731 184.33 173.64 187.891 173.64C191.971 173.52 196.351 173.46 201.031 173.46C204.511 173.46 207.991 173.52 211.471 173.64C214.482 173.64 217.088 173.73 219.291 173.909C219.634 173.937 219.967 173.968 220.291 174V170.4C218.371 170.28 216.271 169.5 213.991 168.06C211.711 166.5 209.671 163.44 207.871 158.88L163.951 45.66H161.071L118.771 154.74C116.731 160.14 114.451 163.98 111.931 166.26ZM135.422 122.16H176.216L156.106 68.4269L135.422 122.16ZM136.878 121.16H174.774L156.093 71.2447L136.878 121.16Z" fill="black"/>
<rect x="85.5" y="37.5" width="157" height="148" stroke="white" stroke-dasharray="10 10"/>
<path d="M43 156.5H130C140.77 156.5 149.5 165.23 149.5 176V185C149.5 195.77 140.77 204.5 130 204.5H43C32.2304 204.5 23.5 195.77 23.5 185V176C23.5 165.23 32.2304 156.5 43 156.5Z" fill="#03F08D" stroke="black"/>
<rect x="238.5" y="32.5" width="9" height="9" fill="black" stroke="white"/>
<rect x="238.5" y="181.5" width="9" height="9" fill="black" stroke="white"/>
<rect x="80.5" y="32.5" width="9" height="9" fill="black" stroke="white"/>
<rect x="271" y="23" width="25" height="25" fill="#03F08D"/>
<rect x="271" y="48" width="25" height="24" fill="#72FFC4"/>
<rect x="271" y="72" width="25" height="25" fill="#CDFFEA"/>
<path d="M49.0171 180H76.3574" stroke="black" stroke-linejoin="round"/>
<path d="M56.9546 171L48.5762 180L56.9546 189.5" stroke="black" stroke-linejoin="round"/>
<path d="M124.865 181L97.5245 181" stroke="black" stroke-linejoin="round"/>
<path d="M116.927 190L125.306 181L116.927 171.5" stroke="black" stroke-linejoin="round"/>
<circle cx="162.5" cy="45.5" r="2" fill="white" stroke="black"/>
<circle cx="156.5" cy="70.5" r="2" fill="white" stroke="black"/>
<circle cx="174.5" cy="121.5" r="2" fill="white" stroke="black"/>
<circle cx="136.5" cy="121.5" r="2" fill="white" stroke="black"/>
<circle cx="176.5" cy="126.5" r="2" fill="white" stroke="black"/>
<circle cx="133.5" cy="126.5" r="2" fill="white" stroke="black"/>
<circle cx="220.5" cy="172.5" r="2" fill="white" stroke="black"/>
<circle cx="178.5" cy="172.5" r="2" fill="white" stroke="black"/>
</svg>
