<svg width="244" height="137" viewBox="0 0 244 137" fill="none" xmlns="http://www.w3.org/2000/svg">
<path fill-rule="evenodd" clip-rule="evenodd" d="M109.846 104.497C109.846 117.885 120.7 128.739 134.089 128.739C147.477 128.739 158.331 117.885 158.331 104.497C158.331 91.1079 147.477 80.2542 134.089 80.2542C120.7 80.2542 109.846 91.1079 109.846 104.497ZM102.089 104.497C102.089 122.17 116.416 136.497 134.089 136.497C151.762 136.497 166.089 122.17 166.089 104.497C166.089 86.8235 151.762 72.4966 134.089 72.4966C116.416 72.4966 102.089 86.8235 102.089 104.497Z" fill="white"/>
<path fill-rule="evenodd" clip-rule="evenodd" d="M53.7785 82.2297C53.7256 82.2476 53.7188 82.2499 53.751 82.2309C51.925 83.311 49.5751 82.6593 48.5024 80.7752C47.4297 78.8912 48.0403 76.4883 49.8663 75.4081C50.9297 74.7792 52.3153 74.4266 53.4138 74.2099C54.6444 73.9671 56.0517 73.797 57.4515 73.7224C58.8434 73.6482 60.3277 73.6631 61.6936 73.8306C62.9182 73.9807 64.6012 74.3113 65.9685 75.2459C67.7393 76.4562 68.2331 78.8992 67.0714 80.7023C65.9276 82.4779 63.605 82.971 61.8435 81.8299C61.8453 81.8314 61.8461 81.8323 61.8459 81.8328C61.8426 81.8406 61.5722 81.7262 60.863 81.6393C60.0516 81.5398 59.025 81.5179 57.9304 81.5762C56.8437 81.6341 55.7888 81.7657 54.9394 81.9333C54.2577 82.0678 53.8988 82.1891 53.7785 82.2297Z" fill="white"/>
<path fill-rule="evenodd" clip-rule="evenodd" d="M55.4571 11.1127C58.1493 13.7369 61.0036 17.5154 64.0347 22.6789C78.7812 47.7995 70.0902 75.1653 65.1994 90.5652C64.7624 91.9411 64.3558 93.2214 63.999 94.3961L60.5012 97.1205L51.9684 97.4033L47.9709 93.5394C47.8426 88.7462 47.7309 81.4521 47.7116 74.9717C47.7019 71.7323 47.7152 68.6763 47.7618 66.2281C47.8059 63.9162 47.8818 61.814 48.055 60.7219C48.4536 58.2083 48.4534 56.4793 48.0953 55.6177C47.9359 55.2341 47.6209 54.7997 47.1042 54.3211C46.5867 53.8417 46.0344 53.4642 45.4429 53.0599L45.4266 53.0487C41.9348 50.662 39.0621 47.0354 36.7945 44.0322C36.4046 43.5159 36.0364 43.0225 35.6827 42.5488C34.9426 41.5572 34.2666 40.6515 33.5904 39.8005C32.5916 38.5433 31.8124 37.6936 31.1872 37.1837C29.6831 35.9573 28.5753 34.3997 28.1202 32.5015C27.679 30.6611 27.9581 28.9414 28.4143 27.5407C29.1307 25.3412 30.6215 23.0696 31.7708 21.3182C31.9559 21.0363 32.1321 20.7677 32.2947 20.5152C35.0293 16.2705 35.7315 15.1521 36.3447 13.6473C36.9765 11.6995 38.1111 9.67224 39.9012 8.19416C41.8425 6.59123 44.4014 5.77964 47.3025 6.32183C50.0619 6.83754 52.7847 8.50772 55.4571 11.1127ZM44.7493 14.3402C44.344 14.6749 43.8948 15.3282 43.6017 16.2724L43.4979 16.5655C42.5573 18.9236 41.4395 20.6584 38.9501 24.5215C38.8706 24.6449 38.7897 24.7705 38.7073 24.8984C38.4808 25.2499 38.2658 25.5793 38.0603 25.8944C37.59 26.6149 37.169 27.26 36.7725 27.9217C36.2133 28.855 35.8688 29.5576 35.6912 30.103C35.5789 30.4476 35.5673 30.6265 35.5681 30.6898C35.6043 30.7467 35.6996 30.8675 35.9212 31.0482C37.2283 32.1139 38.4375 33.5151 39.5155 34.8719C40.2679 35.8189 41.0636 36.8846 41.8431 37.9287C42.18 38.3799 42.5138 38.8271 42.8398 39.2588C45.1445 42.3111 47.3274 44.9429 49.6333 46.519C49.6833 46.5532 49.7392 46.591 49.8004 46.6324C50.915 47.3856 53.7851 49.325 55.1459 52.6C56.4838 55.8199 56.0008 59.6954 55.6251 62.0643C55.5579 62.4883 55.4772 63.9645 55.4296 66.4649C55.3846 68.8289 55.3712 71.819 55.3808 75.031C55.3951 79.8357 55.4607 85.0924 55.5458 89.4135L57.4898 89.3491C57.613 88.9556 57.7382 88.5565 57.8651 88.152C62.8038 72.4113 70.298 48.5258 57.4753 26.6823C54.6635 21.8924 52.2237 18.754 50.2043 16.7854C48.165 14.7976 46.7586 14.1992 46.0049 14.0583C45.393 13.944 45.055 14.0878 44.7493 14.3402ZM35.5489 30.6521C35.5498 30.6521 35.5544 30.66 35.5598 30.6761C35.5506 30.6602 35.5479 30.6522 35.5489 30.6521ZM35.5691 30.7122C35.5696 30.7153 35.5698 30.7168 35.5697 30.7169C35.5697 30.7169 35.5694 30.7154 35.5691 30.7122Z" fill="white"/>
<path fill-rule="evenodd" clip-rule="evenodd" d="M33.393 10.0481C34.5546 8.24493 36.9318 7.7644 38.7026 8.97478L41.9956 11.2256C43.7664 12.436 44.2602 14.8789 43.0986 16.682C41.9369 18.4852 39.5597 18.9657 37.7889 17.7553L34.496 15.5045C32.7252 14.2941 32.2314 11.8512 33.393 10.0481Z" fill="white"/>
<path fill-rule="evenodd" clip-rule="evenodd" d="M27.9301 18.5285C29.0918 16.7254 31.469 16.2449 33.2397 17.4552L36.5327 19.7061C38.3035 20.9164 38.7973 23.3594 37.6357 25.1625C36.474 26.9656 34.0968 27.4462 32.326 26.2358L29.0331 23.985C27.2623 22.7746 26.7685 20.3317 27.9301 18.5285Z" fill="white"/>
<path fill-rule="evenodd" clip-rule="evenodd" d="M117.928 57.1162C110.766 55.9165 101.715 59.1471 95.9594 70.8769C90.936 81.115 90.2871 92.7956 89.6793 103.734C89.561 105.865 89.4441 107.968 89.2968 110.026C88.8679 116.021 88.1421 122.031 85.7498 126.561C84.498 128.931 82.7412 131.004 80.2768 132.452C77.8248 133.892 74.9447 134.554 71.6946 134.554C64.3056 134.554 58.9058 132.042 55.2912 127.851C51.8051 123.808 50.3623 118.644 49.8384 113.962C49.3098 109.239 49.6713 104.604 50.14 101.214C50.3763 99.5041 50.645 98.0755 50.8569 97.0654C50.9629 96.5597 51.0551 96.157 51.1225 95.8743C51.1562 95.7328 51.1837 95.6213 51.2037 95.5416L51.2279 95.4464L51.2354 95.4172L51.238 95.4073L51.239 95.4036C51.2394 95.4021 51.2398 95.4007 54.7803 96.3328L51.2398 95.4006C51.7859 93.3264 53.9102 92.0876 55.9844 92.6338C58.0574 93.1796 59.2959 95.3016 58.7522 97.3746C58.7522 97.3747 58.7522 97.3745 58.7522 97.3746C58.752 97.3753 58.7514 97.3777 58.7512 97.3784L58.7371 97.434C58.7245 97.4842 58.7045 97.5651 58.6784 97.6747C58.6261 97.8942 58.5495 98.228 58.4589 98.6596C58.2776 99.5243 58.0421 100.774 57.8342 102.278C57.4143 105.316 57.1271 109.251 57.5576 113.098C57.9927 116.987 59.1168 120.393 61.1736 122.778C63.1018 125.014 66.2208 126.787 71.6946 126.787C73.8863 126.787 75.335 126.346 76.3422 125.755C77.3369 125.17 78.1697 124.281 78.8813 122.934C80.4159 120.028 81.1124 115.576 81.5492 109.472C81.6786 107.664 81.7816 105.737 81.8895 103.719C82.4722 92.8164 83.1971 79.2538 88.9862 67.4554C96.0935 52.9701 108.316 47.6305 119.211 49.4555C129.863 51.24 138.902 59.9706 138.902 72.191C138.902 74.3359 137.164 76.0747 135.019 76.0747C132.874 76.0747 131.135 74.3359 131.135 72.191C131.135 64.2459 125.332 58.3566 117.928 57.1162Z" fill="white"/>
<path fill-rule="evenodd" clip-rule="evenodd" d="M147.877 92.602C149.452 94.1145 149.497 96.6123 147.979 98.1809L131.42 115.29C130.593 116.144 129.424 116.582 128.237 116.483C127.05 116.383 125.971 115.756 125.299 114.776L119.779 106.725C118.545 104.926 119.009 102.471 120.816 101.242C122.622 100.013 125.086 100.475 126.319 102.274L129.095 106.323L142.278 92.7034C143.796 91.1348 146.303 91.0894 147.877 92.602Z" fill="white"/>
<path d="M130.644 37H123.589V9.80273L115.166 12.415V6.67773L129.887 1.4043H130.644V37ZM166.142 22.3027C166.142 27.2181 165.125 30.9779 163.091 33.582C161.056 36.1862 158.078 37.4883 154.155 37.4883C150.281 37.4883 147.319 36.2106 145.268 33.6553C143.218 31.0999 142.168 27.4378 142.119 22.6689V16.126C142.119 11.1618 143.144 7.39388 145.195 4.82227C147.262 2.25065 150.233 0.964844 154.106 0.964844C157.98 0.964844 160.942 2.24251 162.993 4.79785C165.044 7.33691 166.094 10.9909 166.142 15.7598V22.3027ZM159.087 15.125C159.087 12.179 158.68 10.0387 157.866 8.7041C157.068 7.35319 155.815 6.67773 154.106 6.67773C152.446 6.67773 151.217 7.32064 150.42 8.60645C149.638 9.87598 149.223 11.8698 149.175 14.5879V23.2305C149.175 26.1276 149.565 28.2842 150.346 29.7002C151.144 31.0999 152.413 31.7998 154.155 31.7998C155.88 31.7998 157.125 31.1243 157.89 29.7734C158.655 28.4225 159.054 26.3555 159.087 23.5723V15.125ZM194.853 22.3027C194.853 27.2181 193.836 30.9779 191.802 33.582C189.767 36.1862 186.788 37.4883 182.866 37.4883C178.992 37.4883 176.03 36.2106 173.979 33.6553C171.928 31.0999 170.879 27.4378 170.83 22.6689V16.126C170.83 11.1618 171.855 7.39388 173.906 4.82227C175.973 2.25065 178.943 0.964844 182.817 0.964844C186.691 0.964844 189.653 2.24251 191.704 4.79785C193.755 7.33691 194.804 10.9909 194.853 15.7598V22.3027ZM187.798 15.125C187.798 12.179 187.391 10.0387 186.577 8.7041C185.779 7.35319 184.526 6.67773 182.817 6.67773C181.157 6.67773 179.928 7.32064 179.131 8.60645C178.349 9.87598 177.934 11.8698 177.885 14.5879V23.2305C177.885 26.1276 178.276 28.2842 179.057 29.7002C179.855 31.0999 181.124 31.7998 182.866 31.7998C184.591 31.7998 185.836 31.1243 186.601 29.7734C187.366 28.4225 187.765 26.3555 187.798 23.5723V15.125ZM214.165 17.1025H222.978V23.4746H214.165V33.4355H207.451V23.4746H198.613V17.1025H207.451V7.55664H214.165V17.1025Z" fill="#656970"/>
<path d="M133.753 78H131.409V56.8672H133.753V78ZM130.999 50.7539C130.999 50.3112 131.142 49.9401 131.428 49.6406C131.715 49.3281 132.106 49.1719 132.6 49.1719C133.095 49.1719 133.486 49.3281 133.772 49.6406C134.072 49.9401 134.221 50.3112 134.221 50.7539C134.221 51.1966 134.072 51.5677 133.772 51.8672C133.486 52.1667 133.095 52.3164 132.6 52.3164C132.106 52.3164 131.715 52.1667 131.428 51.8672C131.142 51.5677 130.999 51.1966 130.999 50.7539ZM147.932 76.418C149.56 76.418 150.921 75.9622 152.014 75.0508C153.121 74.1263 153.72 72.9349 153.811 71.4766H156.057C155.992 72.7656 155.589 73.944 154.846 75.0117C154.104 76.0664 153.115 76.8932 151.878 77.4922C150.654 78.0911 149.339 78.3906 147.932 78.3906C145.159 78.3906 142.958 77.4271 141.331 75.5C139.716 73.5729 138.909 70.9818 138.909 67.7266V67.0234C138.909 64.9401 139.274 63.0977 140.003 61.4961C140.732 59.8945 141.774 58.6576 143.128 57.7852C144.495 56.9128 146.09 56.4766 147.913 56.4766C150.231 56.4766 152.138 57.1667 153.635 58.5469C155.146 59.9271 155.953 61.7435 156.057 63.9961H153.811C153.707 62.3424 153.108 61.0078 152.014 59.9922C150.934 58.9766 149.566 58.4688 147.913 58.4688C145.803 58.4688 144.163 59.2305 142.991 60.7539C141.832 62.2773 141.253 64.4128 141.253 67.1602V67.8438C141.253 70.5391 141.832 72.6419 142.991 74.1523C144.163 75.6628 145.81 76.418 147.932 76.418ZM159.456 67.1211C159.456 65.0898 159.846 63.2604 160.628 61.6328C161.422 60.0052 162.535 58.7422 163.968 57.8438C165.413 56.9323 167.047 56.4766 168.87 56.4766C171.682 56.4766 173.961 57.4661 175.706 59.4453C177.451 61.4115 178.323 64.0221 178.323 67.2773V67.7656C178.323 69.8099 177.926 71.6523 177.132 73.293C176.35 74.9206 175.244 76.1771 173.811 77.0625C172.379 77.9479 170.745 78.3906 168.909 78.3906C166.109 78.3906 163.831 77.4076 162.073 75.4414C160.328 73.4622 159.456 70.8451 159.456 67.5898V67.1211ZM161.8 67.7656C161.8 70.2917 162.451 72.3685 163.753 73.9961C165.068 75.6107 166.787 76.418 168.909 76.418C171.018 76.418 172.724 75.6107 174.026 73.9961C175.341 72.3685 175.999 70.2266 175.999 67.5703V67.1211C175.999 65.5065 175.699 64.0286 175.1 62.6875C174.501 61.3464 173.662 60.3112 172.581 59.582C171.5 58.8398 170.263 58.4688 168.87 58.4688C166.787 58.4688 165.087 59.2891 163.772 60.9297C162.457 62.5573 161.8 64.6927 161.8 67.3359V67.7656ZM185.393 56.8672L185.471 60.4805C186.266 59.1784 187.255 58.1888 188.44 57.5117C189.625 56.8216 190.934 56.4766 192.366 56.4766C194.632 56.4766 196.318 57.1146 197.425 58.3906C198.531 59.6667 199.091 61.5807 199.104 64.1328V78H196.78V64.1133C196.767 62.2253 196.363 60.819 195.569 59.8945C194.788 58.9701 193.531 58.5078 191.8 58.5078C190.354 58.5078 189.072 58.9635 187.952 59.875C186.845 60.7734 186.025 61.9909 185.491 63.5273V78H183.167V56.8672H185.393ZM217.815 72.6289C217.815 71.4701 217.346 70.5391 216.409 69.8359C215.484 69.1328 214.085 68.5859 212.21 68.1953C210.335 67.7917 208.876 67.3359 207.835 66.8281C206.806 66.3073 206.038 65.6758 205.53 64.9336C205.035 64.1914 204.788 63.293 204.788 62.2383C204.788 60.5716 205.484 59.1979 206.878 58.1172C208.271 57.0234 210.055 56.4766 212.229 56.4766C214.586 56.4766 216.474 57.0625 217.893 58.2344C219.326 59.3932 220.042 60.9102 220.042 62.7852H217.698C217.698 61.5482 217.177 60.5195 216.135 59.6992C215.107 58.8789 213.805 58.4688 212.229 58.4688C210.693 58.4688 209.456 58.8138 208.518 59.5039C207.594 60.181 207.132 61.0664 207.132 62.1602C207.132 63.2148 207.516 64.0352 208.284 64.6211C209.065 65.194 210.478 65.7214 212.522 66.2031C214.58 66.6849 216.116 67.1992 217.132 67.7461C218.16 68.293 218.922 68.9505 219.417 69.7188C219.912 70.487 220.159 71.418 220.159 72.5117C220.159 74.2956 219.436 75.7214 217.991 76.7891C216.559 77.8568 214.684 78.3906 212.366 78.3906C209.905 78.3906 207.906 77.7982 206.37 76.6133C204.846 75.4154 204.085 73.9049 204.085 72.082H206.428C206.52 73.4492 207.093 74.5169 208.147 75.2852C209.215 76.0404 210.621 76.418 212.366 76.418C213.994 76.418 215.309 76.0599 216.311 75.3438C217.314 74.6276 217.815 73.7227 217.815 72.6289Z" fill="#656970"/>
</svg>
