<svg width="1282" height="100" viewBox="0 0 1282 100" fill="none" xmlns="http://www.w3.org/2000/svg">
<path d="M927.6 52.4995V41.0997C917.6 47.6997 912 40.1997 911.2 41.0997C905.9 46.2997 898.2 43.2997 895 41.0997V57.7997C895.5 63.0997 897.4 70.7997 911.2 76.9997C912.3 76.5997 912.5 76.3995 913.5 75.9995" stroke="white" stroke-width="4" stroke-linecap="round" stroke-linejoin="round"/>
<path d="M921.667 84H877V34H944V65" stroke="white" stroke-width="4" stroke-linecap="round" stroke-linejoin="round"/>
<path d="M889.182 20H877V34H944V20H931.818M901.871 20H920.144" stroke="white" stroke-width="4" stroke-linecap="round" stroke-linejoin="round"/>
<path d="M892 27V16H901V27H892Z" stroke="white" stroke-width="4" stroke-linecap="round" stroke-linejoin="round"/>
<path d="M921 27V16H930V27H921Z" stroke="white" stroke-width="4" stroke-linecap="round" stroke-linejoin="round"/>
<path d="M920.8 54.1004C920.8 50.9004 920.8 47.6004 920.8 44.4004" stroke="white" stroke-width="4" stroke-linecap="round" stroke-linejoin="round"/>
<path d="M901.7 45.5C901.6 54 901.8 67.5 912 69" stroke="white" stroke-width="4" stroke-linecap="round" stroke-linejoin="round"/>
<path d="M928.6 85C937.437 85 944.6 77.8366 944.6 69C944.6 60.1634 937.437 53 928.6 53C919.764 53 912.6 60.1634 912.6 69C912.6 77.8366 919.764 85 928.6 85Z" stroke="white" stroke-width="4"/>
<path d="M930.774 75.0325L930.013 74.2712C930.979 74.7303 932.17 74.561 932.97 73.7607L932.97 73.7604L934.093 72.6382L936.231 74.2418L935.44 75.0324C934.151 76.3218 932.065 76.3232 930.774 75.0325ZM933.071 71.8718L933.071 71.8719L933.071 71.8718ZM937.431 73.0412L937.43 73.0421C937.431 73.0417 937.431 73.0413 937.432 73.0409L937.431 73.0412ZM925.24 66.0297C924.44 66.8289 924.269 68.02 924.729 68.9869L923.968 68.226C923.968 68.226 923.968 68.226 923.968 68.226C922.68 66.9382 922.675 64.853 923.968 63.5597C923.968 63.5597 923.968 63.5597 923.968 63.5597L924.758 62.7692L926.362 64.9074L925.24 66.0297C925.24 66.0297 925.24 66.0297 925.24 66.0297ZM925.959 61.5685C925.959 61.5687 925.959 61.5688 925.959 61.569L925.959 61.5685Z" stroke="white" stroke-width="4"/>
<path d="M1090.29 46.9654L1087.05 40.2463L1080.12 42.8773" stroke="white" stroke-width="4" stroke-linecap="round" stroke-linejoin="round"/>
<path d="M1046.89 58.3076L1055.2 50" stroke="white" stroke-width="4" stroke-linecap="round" stroke-linejoin="round"/>
<path d="M1063.51 48.2319L1073.51 54.3893" stroke="white" stroke-width="4" stroke-linecap="round" stroke-linejoin="round"/>
<path d="M1080.43 52.7902L1086.3 42.6155" stroke="white" stroke-width="4" stroke-linecap="round" stroke-linejoin="round"/>
<circle cx="1059.35" cy="46.769" r="3.99994" stroke="white" stroke-width="4" stroke-linecap="round" stroke-linejoin="round"/>
<circle cx="1077.82" cy="55.9999" r="3.99994" stroke="white" stroke-width="4" stroke-linecap="round" stroke-linejoin="round"/>
<path d="M1036 31.7791C1032.82 37.2883 1031 43.6816 1031 50.5C1031 71.2107 1047.79 88 1068.5 88C1076 88 1082.99 85.796 1088.86 82M1044 22.109C1050.57 16.4329 1059.13 13 1068.5 13C1074.03 13 1079.28 14.1959 1084 16.3432M1092 21.275C1100.54 28.1486 1106 38.6864 1106 50.5C1106 59.5252 1102.81 67.8057 1097.5 74.2767" stroke="white" stroke-width="4" stroke-linecap="round"/>
<circle cx="375" cy="48" r="30" stroke="white" stroke-width="4" stroke-linecap="round"/>
<path d="M397 70.5L411.5 85" stroke="white" stroke-width="4" stroke-linecap="round" stroke-linejoin="round"/>
<path d="M380.333 43.3032L369.788 53.8487" stroke="white" stroke-width="4" stroke-linecap="round" stroke-linejoin="round"/>
<path d="M370.667 44.8413L370.667 45.061" stroke="white" stroke-width="4" stroke-linecap="round" stroke-linejoin="round"/>
<path d="M378.576 52.75L378.576 52.9697" stroke="white" stroke-width="4" stroke-linecap="round" stroke-linejoin="round"/>
<path d="M358.364 59.9999V37.1514H392.636V59.9999H358.364Z" stroke="white" stroke-width="4" stroke-linecap="round" stroke-linejoin="round"/>
<path d="M363.636 37.1515V31H372.424V37.1515" stroke="white" stroke-width="4" stroke-linecap="round" stroke-linejoin="round"/>
<path d="M378.576 37.1515V31L387.364 31V37.1515" stroke="white" stroke-width="4" stroke-linecap="round" stroke-linejoin="round"/>
<path d="M255.422 60.1699C255.278 58.8116 254.242 57.6757 253.616 57.1818C253.327 56.1693 251.834 53.601 243.911 51.9958C238.348 50.8598 236.517 50.1931 235.94 49.8967L235.602 49.5757C235.145 49.1312 224.067 38.7099 210.003 39.0062L255.422 60.1699ZM255.422 60.1699C255.542 61.2565 255.856 61.701 255.856 61.701L256 61.8738M255.422 60.1699L248.727 72.715M248.727 72.715C249.064 72.7397 249.522 72.7644 250.052 72.7644C253.495 72.7644 255.542 71.6778 255.976 69.6528M248.727 72.715C248.715 72.7397 248.709 72.7705 248.703 72.8014C248.697 72.8323 248.691 72.8631 248.679 72.8878L248.727 72.715ZM255.976 69.6528L256 69.5046M255.976 69.6528L255.284 69.5046M255.976 69.6528L255.064 69.5046H255.284M256 69.5046V61.8738M256 69.5046L254.026 69.1838L254.011 69.2731L255.284 69.5046M256 69.5046H255.284M256 61.8738L254.465 63.1565L254.321 62.9836C254.286 62.9414 254.252 62.8977 254.22 62.8526L255.61 61.8738H255.649H256ZM180.165 49.8473C181.597 51.2437 181.598 51.243 181.598 51.2423L181.6 51.2409L181.602 51.2381L181.608 51.2324L181.619 51.221L181.64 51.1977C181.655 51.182 181.669 51.1659 181.683 51.1494C181.712 51.1164 181.74 51.0819 181.767 51.0459C181.822 50.9739 181.873 50.8966 181.921 50.8142C182.016 50.6525 182.095 50.4744 182.159 50.2808C182.159 50.2807 182.159 50.2805 182.16 50.2803C182.163 50.2723 182.202 50.1762 182.348 49.981C182.499 49.7799 182.718 49.5313 183.023 49.2284C183.64 48.6156 184.469 47.9106 185.488 47.0646C185.55 47.0136 185.617 46.9584 185.687 46.9002C186.116 46.5463 186.681 46.0795 186.991 45.7614C187.426 45.3162 187.628 44.6945 187.539 44.0791C187.524 43.9722 187.516 43.8765 187.514 43.7933C187.553 43.7956 187.592 43.7967 187.631 43.7967C188.073 43.7967 188.594 43.7144 189.064 43.6279C189.57 43.5348 190.176 43.405 190.848 43.2575C194.264 42.5276 200.551 41.1995 210.044 41.0058L210.045 41.0058C216.582 40.868 222.503 43.226 226.912 45.749C231.311 48.2666 234.062 50.8674 234.209 51.0102L234.223 51.0241L234.56 51.3451C234.699 51.4774 234.856 51.5889 235.027 51.6764C235.882 52.115 237.972 52.8244 243.511 53.9554L243.514 53.956C247.316 54.7264 249.386 55.6925 250.487 56.4553C251.542 57.1852 251.687 57.7091 251.693 57.7302L251.693 57.7307C251.808 58.1346 252.047 58.4919 252.377 58.752C252.548 58.8867 252.821 59.1506 253.053 59.4865C253.286 59.8257 253.407 60.1349 253.433 60.3814L253.434 60.3902C253.512 61.094 253.658 61.6408 253.813 62.0499C253.876 62.2167 253.94 62.3591 254 62.4785V69.3175C253.909 69.6522 253.701 69.9401 253.211 70.1984C252.61 70.515 251.598 70.7644 250.052 70.7644C249.583 70.7644 249.176 70.7425 248.873 70.7203C248.058 70.6606 247.288 71.1034 246.929 71.8385C246.884 71.9321 246.851 72.0166 246.828 72.0851C246.804 72.1535 246.787 72.2133 246.776 72.2587C246.769 72.284 246.764 72.307 246.759 72.3268C246.708 72.4961 246.652 72.6435 246.569 72.8614C246.544 72.9273 246.516 72.9998 246.485 73.0812C245.23 75.9988 242.396 78 239.142 78C235.767 78 232.841 75.8271 231.67 72.7248C231.664 72.7092 231.658 72.6937 231.651 72.6782C231.576 72.4926 231.508 72.2751 231.413 71.9573C231.265 71.0165 230.461 70.2914 229.479 70.2709C220.019 70.0734 208.583 69.8018 199.243 69.555C198.243 69.5285 197.377 70.2456 197.216 71.2334C197.193 71.3757 197.175 71.4827 197.16 71.5656C197.094 71.8548 197.04 72.0704 196.975 72.2696C196.97 72.284 196.966 72.2985 196.961 72.313C196.909 72.4882 196.852 72.6377 196.767 72.8614C196.742 72.9274 196.714 72.9998 196.683 73.0812C195.428 75.9988 192.594 78 189.34 78C185.965 78 183.039 75.8271 181.868 72.7248C181.862 72.7092 181.856 72.6937 181.849 72.6782C181.775 72.4949 181.708 72.2804 181.614 71.9689C181.554 71.7185 181.493 71.4466 181.427 71.1569C181.374 70.8545 181.338 70.5528 181.319 70.2297C181.278 69.5152 180.858 68.8771 180.219 68.5563C179.527 68.2094 179.001 67.6897 178.639 66.9488L178.64 66.9488L178.634 66.9369C178.117 65.8958 177.952 64.557 178.012 63.2899C178.041 62.6732 178.122 62.1228 178.215 61.7022C178.304 61.3015 178.379 61.1343 178.375 61.1327C178.375 61.1326 178.374 61.1333 178.373 61.1349C178.631 60.7035 178.741 60.2247 178.793 59.9794C178.866 59.6398 178.921 59.259 178.966 58.889C179.032 58.3439 179.088 57.7089 179.141 57.1161C179.159 56.913 179.177 56.7149 179.194 56.5271L179.194 56.5271L179.195 56.5156C179.209 56.3642 179.222 56.2124 179.235 56.0605C179.345 54.7791 179.456 53.4875 179.654 52.372C179.687 52.1862 179.725 52.0202 179.77 51.8776C179.776 51.8585 179.782 51.8405 179.787 51.8237C179.866 51.8332 180.003 51.8473 180.165 51.8473C180.704 51.8473 181.221 51.6297 181.597 51.2437L180.165 49.8473ZM187.54 43.5051C187.54 43.5051 187.54 43.5056 187.54 43.5065L187.54 43.5051Z" stroke="white" stroke-width="4" stroke-linecap="round" stroke-linejoin="round"/>
<path d="M235.5 50.5543L245.223 39.4768C246.332 38.3926 248.266 35.8234 254.149 36.3635" stroke="white" stroke-width="4" stroke-linecap="round" stroke-linejoin="round"/>
<path d="M583.446 84H535V33H602V53.91" stroke="white" stroke-width="4" stroke-linecap="round" stroke-linejoin="round"/>
<circle cx="583.5" cy="63.5" r="20.5" stroke="white" stroke-width="4" stroke-linecap="round"/>
<circle r="2.5" transform="matrix(-1 0 0 1 583.5 63.5)" stroke="white" stroke-width="4" stroke-linecap="round"/>
<path d="M598 78L604 85" stroke="white" stroke-width="4" stroke-linecap="round" stroke-linejoin="round"/>
<path d="M547.182 19H535V33H602V19H589.818M559.871 19H578.144" stroke="white" stroke-width="4" stroke-linecap="round" stroke-linejoin="round"/>
<path d="M550 26V15H559V26H550Z" stroke="white" stroke-width="4" stroke-linecap="round" stroke-linejoin="round"/>
<path d="M579 26V15H588V26H579Z" stroke="white" stroke-width="4" stroke-linecap="round" stroke-linejoin="round"/>
<path d="M563 63C570.193 56.963 588.263 48.5112 603 63" stroke="white" stroke-width="4"/>
<path d="M603 65C595.807 71.037 577.737 79.4888 563 65" stroke="white" stroke-width="4"/>
<path d="M696.516 37.7502C696.299 38.9759 696.191 40.4022 696.082 41.6502C695.952 43.0542 695.844 44.6588 695.584 45.0599C695.129 45.8177 694.457 49.3834 695.757 52.0131C696.256 53.0383 697.014 53.796 697.99 54.2863C698.011 54.6651 698.055 55.0217 698.12 55.3783C698.185 55.668 698.25 55.9577 698.315 56.2251C698.402 56.5148 698.488 56.8046 698.597 57.072C699.897 60.5263 703.17 63 707.006 63C710.712 63 713.898 60.7046 715.286 57.4286C715.394 57.1388 715.502 56.8714 715.589 56.5817C715.676 56.3143 715.741 56.0468 715.806 55.7571C715.827 55.6457 715.849 55.512 715.871 55.3783C724.28 55.6011 740 56.5261 740 56.5261C741.585 55.0388 742.762 53.5 749.5 53.5C755.8 53.5 757.3 56.771 759 56.2251C762.099 56.2251 766.588 55.4897 766.978 53.6623L767 53.5285V46.6422L766.87 46.4862C766.87 46.4862 766.588 46.0851 766.48 45.1045C766.35 43.8788 765.418 42.8537 764.854 42.4079C764.594 41.4942 763.25 39.1765 756.119 37.7279C751.113 36.7028 749.466 36.1011 748.945 35.8336L748.642 35.5439C748.23 35.1428 738.26 25.7382 725.602 26.0056C716.89 26.1839 715.671 25.7826 712.55 26.4512C711.336 26.7186 710.469 26.8969 710.036 26.8969C709.819 26.8746 709.732 26.8746 709.645 26.8746C709.039 26.8746 708.692 27.1644 708.497 27.3872C708.107 27.8998 708.085 28.6129 708.172 29.2147L706.958 30.2621" stroke="white" stroke-width="4" stroke-linecap="round" stroke-linejoin="round"/>
<path d="M707.765 28.1612L701 20.1736C700.067 19.3014 698.5 17.1736 693 18.1736" stroke="white" stroke-width="4" stroke-linecap="round" stroke-linejoin="round"/>
<path d="M748.5 84C739.884 84 733 77.23 733 69C733 60.77 739.884 54 748.5 54C757.115 54 764 60.77 764 69C764 77.23 757.115 84 748.5 84Z" stroke="white" stroke-width="4" stroke-linecap="round"/>
<path d="M746 64L741 69L746 74" stroke="white" stroke-width="4" stroke-linecap="round" stroke-linejoin="round"/>
<path d="M752 74L757 69L752 64" stroke="white" stroke-width="4" stroke-linecap="round" stroke-linejoin="round"/>
<path d="M40.1429 36.4287L34.2802 41.4293V55.0974L32.211 62.765C30.8316 65.7653 36.6253 68.899 37.7288 62.765C38.8324 56.6309 38.1886 52.4305 37.7288 51.097C37.4989 50.4303 37.6598 49.1634 40.1429 49.4301" stroke="white" stroke-width="4" stroke-linecap="round" stroke-linejoin="round"/>
<path d="M35.6191 40.9526V46.3812" stroke="white" stroke-width="4" stroke-linecap="round" stroke-linejoin="round"/>
<path d="M41.9526 34.6774V69H60.9524V34.6774C60.9524 31.9806 59.3691 31.1022 58.1024 31H44.1692C41.8892 31 41.9526 33.4516 41.9526 34.6774Z" stroke="white" stroke-width="4"/>
<rect x="47.4761" y="37" width="8" height="6" rx="2" stroke="white" stroke-width="4"/>
<path d="M17 31.7791C13.8197 37.2883 12 43.6816 12 50.5C12 71.2107 28.7893 88 49.5 88C57.0039 88 63.993 85.796 69.8552 82M25 22.109C31.5717 16.4329 40.1349 13 49.5 13C55.0275 13 60.2758 14.1959 65 16.3432M73 21.275C81.5373 28.1486 87 38.6864 87 50.5C87 59.5252 83.8117 67.8057 78.5 74.2767" stroke="white" stroke-width="4" stroke-linecap="round"/>
<path d="M1218 57V40H1243.05V57H1218Z" stroke="white" stroke-width="4" stroke-linecap="round" stroke-linejoin="round"/>
<path d="M1243.26 44L1248.26 44L1248.26 53L1243.26 53" stroke="white" stroke-width="4" stroke-linecap="round" stroke-linejoin="round"/>
<path d="M1223.37 44.4736L1223.37 52.5263" stroke="white" stroke-width="4" stroke-linecap="round" stroke-linejoin="round"/>
<path d="M1227.84 44.4736L1227.84 52.5263" stroke="white" stroke-width="4" stroke-linecap="round" stroke-linejoin="round"/>
<path d="M1200 30.7791C1196.82 36.2883 1195 42.6816 1195 49.5C1195 70.2107 1211.79 87 1232.5 87C1240 87 1246.99 84.796 1252.86 81M1208 21.109C1214.57 15.4329 1223.13 12 1232.5 12C1238.03 12 1243.28 13.1959 1248 15.3432M1256 20.275C1264.54 27.1486 1270 37.6864 1270 49.5C1270 58.5252 1266.81 66.8057 1261.5 73.2767" stroke="white" stroke-width="4" stroke-linecap="round"/>
</svg>
