<svg width="300" height="174" viewBox="0 0 300 174" fill="none" xmlns="http://www.w3.org/2000/svg">
<path d="M28.8574 141.297V146.155H9.98535V141.297H28.8574ZM11.499 126.453V162H5.37109V126.453H11.499ZM33.5693 126.453V162H27.4658V126.453H33.5693ZM46.582 135.584V162H40.6738V135.584H46.582ZM40.2832 128.65C40.2832 127.755 40.5762 127.015 41.1621 126.429C41.7643 125.826 42.5944 125.525 43.6523 125.525C44.694 125.525 45.516 125.826 46.1182 126.429C46.7204 127.015 47.0215 127.755 47.0215 128.65C47.0215 129.529 46.7204 130.262 46.1182 130.848C45.516 131.434 44.694 131.727 43.6523 131.727C42.5944 131.727 41.7643 131.434 41.1621 130.848C40.5762 130.262 40.2832 129.529 40.2832 128.65ZM69.9463 135.584H75.293V161.268C75.293 163.644 74.7884 165.662 73.7793 167.322C72.7702 168.982 71.3623 170.244 69.5557 171.106C67.749 171.985 65.6576 172.425 63.2812 172.425C62.2721 172.425 61.1491 172.278 59.9121 171.985C58.6914 171.692 57.5033 171.22 56.3477 170.569C55.2083 169.935 54.2562 169.096 53.4912 168.055L56.25 164.588C57.194 165.711 58.2357 166.533 59.375 167.054C60.5143 167.575 61.7106 167.835 62.9639 167.835C64.3148 167.835 65.4622 167.583 66.4062 167.078C67.3665 166.59 68.1071 165.866 68.6279 164.905C69.1488 163.945 69.4092 162.773 69.4092 161.39V141.565L69.9463 135.584ZM52.002 149.085V148.572C52.002 146.57 52.2461 144.747 52.7344 143.104C53.2227 141.443 53.9225 140.019 54.834 138.831C55.7454 137.627 56.8522 136.707 58.1543 136.072C59.4564 135.421 60.9294 135.096 62.5732 135.096C64.2822 135.096 65.7389 135.405 66.9434 136.023C68.1641 136.642 69.1813 137.529 69.9951 138.685C70.8089 139.824 71.4437 141.191 71.8994 142.786C72.3714 144.365 72.7214 146.123 72.9492 148.06V149.695C72.7376 151.583 72.3796 153.309 71.875 154.871C71.3704 156.434 70.7031 157.785 69.873 158.924C69.043 160.063 68.0176 160.942 66.7969 161.561C65.5924 162.179 64.1683 162.488 62.5244 162.488C60.9131 162.488 59.4564 162.155 58.1543 161.487C56.8685 160.82 55.7617 159.884 54.834 158.68C53.9225 157.475 53.2227 156.059 52.7344 154.432C52.2461 152.788 52.002 151.006 52.002 149.085ZM57.8857 148.572V149.085C57.8857 150.289 57.9997 151.412 58.2275 152.454C58.4717 153.496 58.8379 154.415 59.3262 155.213C59.8307 155.994 60.4655 156.613 61.2305 157.068C62.0117 157.508 62.9313 157.728 63.9893 157.728C65.3727 157.728 66.5039 157.435 67.3828 156.849C68.278 156.263 68.9616 155.473 69.4336 154.48C69.9219 153.471 70.2637 152.348 70.459 151.111V146.692C70.3613 145.732 70.1579 144.837 69.8486 144.007C69.5557 143.177 69.1569 142.452 68.6523 141.834C68.1478 141.199 67.513 140.711 66.748 140.369C65.9831 140.011 65.0798 139.832 64.0381 139.832C62.9801 139.832 62.0605 140.06 61.2793 140.516C60.498 140.971 59.8551 141.598 59.3506 142.396C58.8623 143.193 58.4961 144.121 58.252 145.179C58.0078 146.237 57.8857 147.368 57.8857 148.572ZM87.207 124.5V162H81.3477V124.5H87.207ZM86.1816 147.815L84.2773 147.791C84.2936 145.968 84.5459 144.284 85.0342 142.737C85.5387 141.191 86.2386 139.848 87.1338 138.709C88.0452 137.553 89.1357 136.666 90.4053 136.048C91.6748 135.413 93.0827 135.096 94.6289 135.096C95.931 135.096 97.1029 135.275 98.1445 135.633C99.2025 135.991 100.114 136.569 100.879 137.366C101.644 138.147 102.222 139.173 102.612 140.442C103.019 141.696 103.223 143.226 103.223 145.032V162H97.3145V144.983C97.3145 143.714 97.1273 142.705 96.7529 141.956C96.3949 141.207 95.8659 140.67 95.166 140.345C94.4661 140.003 93.6117 139.832 92.6025 139.832C91.5446 139.832 90.6087 140.044 89.7949 140.467C88.9974 140.89 88.3301 141.468 87.793 142.2C87.2559 142.933 86.849 143.779 86.5723 144.739C86.3118 145.7 86.1816 146.725 86.1816 147.815ZM124.707 126.453H130.176L140.454 153.87L150.708 126.453H156.177L142.603 162H138.257L124.707 126.453ZM122.217 126.453H127.417L128.32 150.184V162H122.217V126.453ZM153.467 126.453H158.691V162H152.563V150.184L153.467 126.453ZM164.258 149.085V148.523C164.258 146.619 164.535 144.853 165.088 143.226C165.641 141.582 166.439 140.158 167.48 138.953C168.538 137.732 169.824 136.788 171.338 136.121C172.868 135.438 174.593 135.096 176.514 135.096C178.451 135.096 180.176 135.438 181.689 136.121C183.219 136.788 184.513 137.732 185.571 138.953C186.629 140.158 187.435 141.582 187.988 143.226C188.542 144.853 188.818 146.619 188.818 148.523V149.085C188.818 150.989 188.542 152.755 187.988 154.383C187.435 156.01 186.629 157.435 185.571 158.655C184.513 159.86 183.228 160.804 181.714 161.487C180.2 162.155 178.483 162.488 176.562 162.488C174.626 162.488 172.892 162.155 171.362 161.487C169.849 160.804 168.563 159.86 167.505 158.655C166.447 157.435 165.641 156.01 165.088 154.383C164.535 152.755 164.258 150.989 164.258 149.085ZM170.142 148.523V149.085C170.142 150.273 170.264 151.396 170.508 152.454C170.752 153.512 171.134 154.44 171.655 155.237C172.176 156.035 172.843 156.661 173.657 157.117C174.471 157.573 175.439 157.801 176.562 157.801C177.653 157.801 178.597 157.573 179.395 157.117C180.208 156.661 180.876 156.035 181.396 155.237C181.917 154.44 182.3 153.512 182.544 152.454C182.804 151.396 182.935 150.273 182.935 149.085V148.523C182.935 147.352 182.804 146.245 182.544 145.203C182.3 144.145 181.909 143.209 181.372 142.396C180.851 141.582 180.184 140.947 179.37 140.491C178.573 140.019 177.62 139.783 176.514 139.783C175.407 139.783 174.447 140.019 173.633 140.491C172.835 140.947 172.176 141.582 171.655 142.396C171.134 143.209 170.752 144.145 170.508 145.203C170.264 146.245 170.142 147.352 170.142 148.523ZM193.774 124.5H199.658V156.36L199.097 162H193.774V124.5ZM216.895 148.548V149.061C216.895 151.014 216.675 152.812 216.235 154.456C215.812 156.084 215.161 157.5 214.282 158.704C213.42 159.909 212.345 160.844 211.06 161.512C209.79 162.163 208.317 162.488 206.641 162.488C204.997 162.488 203.564 162.179 202.344 161.561C201.123 160.942 200.098 160.063 199.268 158.924C198.454 157.785 197.795 156.425 197.29 154.847C196.785 153.268 196.427 151.526 196.216 149.622V147.986C196.427 146.066 196.785 144.324 197.29 142.762C197.795 141.183 198.454 139.824 199.268 138.685C200.098 137.529 201.115 136.642 202.319 136.023C203.54 135.405 204.964 135.096 206.592 135.096C208.285 135.096 209.774 135.421 211.06 136.072C212.362 136.723 213.444 137.651 214.307 138.855C215.169 140.044 215.812 141.46 216.235 143.104C216.675 144.747 216.895 146.562 216.895 148.548ZM211.011 149.061V148.548C211.011 147.36 210.913 146.245 210.718 145.203C210.522 144.145 210.197 143.217 209.741 142.42C209.302 141.622 208.7 140.996 207.935 140.54C207.186 140.068 206.25 139.832 205.127 139.832C204.085 139.832 203.19 140.011 202.441 140.369C201.693 140.727 201.066 141.215 200.562 141.834C200.057 142.452 199.658 143.169 199.365 143.982C199.089 144.796 198.901 145.675 198.804 146.619V151.038C198.95 152.259 199.259 153.382 199.731 154.407C200.22 155.416 200.903 156.23 201.782 156.849C202.661 157.451 203.792 157.752 205.176 157.752C206.266 157.752 207.186 157.532 207.935 157.093C208.683 156.653 209.277 156.043 209.717 155.262C210.173 154.464 210.498 153.536 210.693 152.479C210.905 151.421 211.011 150.281 211.011 149.061ZM228.174 135.584V162H222.266V135.584H228.174ZM221.875 128.65C221.875 127.755 222.168 127.015 222.754 126.429C223.356 125.826 224.186 125.525 225.244 125.525C226.286 125.525 227.108 125.826 227.71 126.429C228.312 127.015 228.613 127.755 228.613 128.65C228.613 129.529 228.312 130.262 227.71 130.848C227.108 131.434 226.286 131.727 225.244 131.727C224.186 131.727 223.356 131.434 222.754 130.848C222.168 130.262 221.875 129.529 221.875 128.65ZM240.918 124.5V162H235.01V124.5H240.918ZM253.662 135.584V162H247.754V135.584H253.662ZM247.363 128.65C247.363 127.755 247.656 127.015 248.242 126.429C248.844 125.826 249.674 125.525 250.732 125.525C251.774 125.525 252.596 125.826 253.198 126.429C253.8 127.015 254.102 127.755 254.102 128.65C254.102 129.529 253.8 130.262 253.198 130.848C252.596 131.434 251.774 131.727 250.732 131.727C249.674 131.727 248.844 131.434 248.242 130.848C247.656 130.262 247.363 129.529 247.363 128.65ZM272.217 135.584V139.881H257.324V135.584H272.217ZM261.621 129.114H267.505V154.7C267.505 155.514 267.619 156.141 267.847 156.58C268.091 157.003 268.424 157.288 268.848 157.435C269.271 157.581 269.767 157.654 270.337 157.654C270.744 157.654 271.134 157.63 271.509 157.581C271.883 157.532 272.184 157.483 272.412 157.435L272.437 161.927C271.948 162.073 271.379 162.203 270.728 162.317C270.093 162.431 269.36 162.488 268.53 162.488C267.179 162.488 265.983 162.252 264.941 161.78C263.9 161.292 263.086 160.503 262.5 159.412C261.914 158.322 261.621 156.873 261.621 155.066V129.114ZM284.424 159.119L291.602 135.584H297.9L287.305 166.028C287.061 166.679 286.743 167.387 286.353 168.152C285.962 168.917 285.449 169.642 284.814 170.325C284.196 171.025 283.423 171.587 282.495 172.01C281.567 172.449 280.444 172.669 279.126 172.669C278.605 172.669 278.101 172.62 277.612 172.522C277.14 172.441 276.693 172.352 276.27 172.254L276.245 167.762C276.408 167.778 276.603 167.794 276.831 167.811C277.075 167.827 277.271 167.835 277.417 167.835C278.394 167.835 279.207 167.713 279.858 167.469C280.509 167.241 281.038 166.867 281.445 166.346C281.868 165.825 282.227 165.125 282.52 164.246L284.424 159.119ZM280.371 135.584L286.646 155.359L287.695 161.561L283.618 162.61L274.023 135.584H280.371Z" fill="#656970"/>
<path d="M167.437 0H132.572C124.737 0.0247881 117.229 3.1484 111.689 8.68894C106.148 14.2295 103.025 21.7369 103 29.5724V64.437C103.025 72.2716 106.149 79.7781 111.69 85.3171C117.23 90.8562 124.738 93.9777 132.572 94H167.437C175.271 93.9777 182.777 90.8558 188.317 85.3165C193.856 79.7772 196.978 72.2707 197 64.437V29.5724C196.978 21.7378 193.856 14.2303 188.317 8.68952C182.778 3.14872 175.272 0.0248007 167.437 0V0ZM145.272 50.4592H131.172V63.356C131.128 64.1602 130.777 64.917 130.193 65.4707C129.608 66.0244 128.833 66.333 128.028 66.333C127.222 66.333 126.447 66.0244 125.862 65.4707C125.278 64.917 124.927 64.1602 124.883 63.356V30.6534C124.86 30.226 124.924 29.7984 125.071 29.3966C125.219 28.9947 125.447 28.6272 125.741 28.3164C126.035 28.0056 126.39 27.758 126.783 27.5889C127.176 27.4197 127.599 27.3324 128.028 27.3324C128.456 27.3324 128.879 27.4197 129.272 27.5889C129.665 27.758 130.02 28.0056 130.314 28.3164C130.608 28.6272 130.836 28.9947 130.984 29.3966C131.131 29.7984 131.195 30.226 131.172 30.6534V44.18H145.272C146.076 44.224 146.833 44.5744 147.386 45.1593C147.94 45.7441 148.249 46.5189 148.249 47.3243C148.249 48.1297 147.94 48.9045 147.386 49.4893C146.833 50.0742 146.076 50.4246 145.272 50.4686V50.4592ZM175.164 63.356C175.12 64.1602 174.769 64.917 174.185 65.4707C173.6 66.0244 172.825 66.333 172.019 66.333C171.214 66.333 170.439 66.0244 169.854 65.4707C169.27 64.917 168.919 64.1602 168.875 63.356V37.6752L158.404 47C158.095 47.2753 157.735 47.4871 157.345 47.6233C156.954 47.7595 156.541 47.8175 156.128 47.7939C155.715 47.7704 155.311 47.6657 154.938 47.4859C154.566 47.3062 154.233 47.0548 153.957 46.7462C153.682 46.4376 153.47 46.0778 153.334 45.6873C153.198 45.2969 153.14 44.8834 153.163 44.4705C153.187 44.0577 153.292 43.6535 153.471 43.2811C153.651 42.9086 153.903 42.5753 154.211 42.3L169.919 28.3034L170.078 28.1906C170.165 28.1187 170.256 28.0528 170.351 27.9932C170.435 27.939 170.523 27.8918 170.614 27.8522L170.896 27.7206L171.197 27.6266L171.488 27.5608H171.817H172.015H172.099C172.212 27.5516 172.325 27.5516 172.438 27.5608H172.72L173.011 27.6548C173.112 27.6794 173.209 27.714 173.303 27.7582C173.387 27.7582 173.472 27.8522 173.556 27.8992L173.829 28.059L174.045 28.2376C174.136 28.3086 174.221 28.3872 174.299 28.4726C174.299 28.4726 174.299 28.4726 174.365 28.529C174.408 28.5782 174.446 28.6318 174.478 28.6888C174.551 28.774 174.617 28.8652 174.675 28.9614C174.729 29.0419 174.776 29.1268 174.816 29.2152C174.865 29.3097 174.909 29.407 174.948 29.5066C174.948 29.6006 175.013 29.704 175.042 29.798C175.07 29.892 175.042 29.9954 175.107 30.0894C175.173 30.1834 175.107 30.315 175.107 30.4278C175.107 30.5406 175.107 30.5594 175.107 30.6252L175.164 63.356Z" fill="#656970"/>
</svg>
