<svg width="256" height="256" viewBox="0 0 256 256" fill="none" xmlns="http://www.w3.org/2000/svg">
<rect width="256" height="256" fill="white"/>
<path d="M178.664 81.1128V179.353H168.227V100.903L131.548 179.353H123.943L87.264 101.188V179.353H76.8268V81.1128H87.8605L127.671 166.255L167.481 81.1128H178.664Z" fill="black"/>
<path d="M83.4463 134.202H175.1V144.622H83.4463V134.202Z" fill="black"/>
<path d="M83.4463 100.463H175.1V110.883H83.4463V100.463Z" fill="black"/>
<path d="M133.347 56.3046L133.347 107.906H122.654V56.3046L133.347 56.3046Z" fill="black"/>
<path d="M154.478 66.7241L101.522 66.7241V56.3046L154.478 56.3046V66.7241Z" fill="black"/>
<path d="M203.614 66.7241L192.921 66.7241V56.3046L203.614 56.3046V66.7241Z" fill="black"/>
<path d="M62.5696 66.7241L51.8767 66.7241L51.8767 56.3046L62.5696 56.3046L62.5696 66.7241Z" fill="black"/>
<path d="M203.614 204.161H192.921V193.742H203.614V204.161Z" fill="black"/>
<path d="M189.357 189.773H178.664V179.353H189.357V189.773Z" fill="black"/>
<path d="M88.0289 204.161H51.8767L51.8767 193.742H88.0289V204.161Z" fill="black"/>
<path d="M76.8268 66.2279L66.1339 66.2279L66.1339 55.8085L76.8268 55.8085L76.8268 66.2279Z" fill="black"/>
<path d="M57.4778 134.202H83.4463V144.622H57.4778V134.202Z" fill="black"/>
<path d="M176.467 120.724L201.046 144.675L193.485 152.042L168.906 128.092L176.467 120.724Z" fill="black"/>
<path d="M51.8767 179.849L51.8767 81.1128H62.5696L62.5696 179.849H51.8767Z" fill="black"/>
<path d="M192.921 179.849V81.1128H203.614L203.614 179.849H192.921Z" fill="black"/>
<path d="M128.24 204.658C123.189 204.658 118.65 203.694 114.624 201.768C110.671 199.762 107.56 197.033 105.291 193.582C103.021 190.051 102.359 184.176 102.286 179.601H112.47C112.836 183.534 114.258 188.686 116.82 191.415C119.455 194.063 123.262 195.388 128.24 195.388C132.998 195.388 136.731 194.104 139.44 191.535C142.221 188.887 143.612 185.516 143.612 181.423C143.612 178.212 142.807 175.604 141.196 173.598C139.586 171.591 137.573 170.066 135.157 169.023C132.742 167.98 129.484 166.856 125.385 165.652C120.334 164.207 119.895 161.199 116.82 159.755C113.819 158.31 116.93 153.874 114.734 150.824C112.611 147.694 107.633 145.587 107.633 140.371C107.633 135.796 103.278 133.428 105.4 129.897C107.523 126.366 110.488 123.637 114.295 121.711C118.174 119.784 122.603 118.821 127.581 118.821C134.755 118.821 140.611 120.788 145.149 124.72C149.761 128.653 150.15 129.737 151.932 135.691L141.965 140.371C141.599 137.16 140.062 134.351 137.353 131.944C134.645 129.455 131.058 128.211 126.593 128.211C122.42 128.211 119.016 129.415 116.381 131.823C113.746 134.151 112.428 137.441 112.428 141.695C112.428 144.745 113.197 147.233 114.734 149.159C116.344 151.085 118.284 152.57 120.553 153.613C122.896 154.576 126.153 155.7 130.326 156.984C135.377 158.509 139.44 160.034 142.514 161.559C145.589 163.003 148.224 165.291 150.42 168.421C152.616 171.471 153.714 175.644 153.714 180.941C153.714 185.034 152.726 188.887 150.749 192.498C148.773 196.11 145.845 199.039 141.965 201.287C138.085 203.534 133.51 204.658 128.24 204.658Z" fill="black"/>
<path fill-rule="evenodd" clip-rule="evenodd" d="M212.398 43.2794H43.6017V212.721H212.398V43.2794ZM31 31V225H225V31H31Z" fill="black"/>
</svg>
